<?xml version="1.0" encoding="UTF-8"?>
<svg viewBox="0 0 200 120" xmlns="http://www.w3.org/2000/svg" fill="none" preserveAspectRatio="xMidYMid meet">
  <!-- Albert Park Circuit Circuit -->
  <!-- Track glow effect -->
  <path d="M89.20,83.81 L82.81,78.83 L73.35,71.21 L72.80,70.78 L72.57,70.17 L72.61,69.91 L72.77,69.66 L73.09,69.05 L73.62,68.30 L73.95,67.35 L74.14,66.17 L74.18,65.31 L73.85,63.63 L73.43,62.78 L72.78,61.89 L72.02,61.17 L70.34,59.85 L68.34,58.40 L65.53,56.25 L62.10,53.36 L60.72,52.20 L57.07,48.58 L55.25,46.66 L53.38,44.33 L49.76,39.34 L48.87,37.94 L48.33,36.89 L48.40,36.30 L48.71,35.89 L49.47,35.59 L52.02,35.24 L56.84,34.46 L57.40,34.28 L57.75,34.10 L57.99,33.84 L58.34,33.01 L58.41,32.15 L58.09,24.71 L57.97,21.98 L58.06,21.75 L59.08,20.81 L60.02,20.25 L67.19,16.16 L68.78,15.44 L76.18,13.05 L78.98,12.25 L81.51,11.05 L83.43,10.13 L84.29,10.01 L84.98,10.00 L85.61,10.30 L86.45,11.07 L87.46,11.78 L88.84,12.55 L90.60,13.07 L92.88,13.29 L94.94,13.37 L96.68,13.57 L98.63,14.11 L100.35,14.75 L102.25,15.87 L103.53,16.77 L104.80,18.08 L106.00,19.72 L106.67,21.38 L107.09,22.67 L107.30,23.75 L109.04,31.23 L109.05,32.17 L108.86,33.29 L108.40,34.44 L107.85,35.42 L106.88,36.51 L105.98,37.38 L104.99,38.43 L104.50,39.20 L104.06,40.07 L103.74,41.05 L101.77,49.29 L101.62,50.29 L101.54,51.49 L101.54,52.58 L101.66,54.56 L101.95,56.10 L102.48,57.87 L103.14,59.58 L103.99,61.05 L104.89,62.41 L106.37,64.24 L107.36,65.40 L109.35,67.06 L115.91,71.67 L116.95,72.31 L117.92,72.73 L118.64,73.00 L120.02,73.33 L121.36,73.42 L122.98,73.37 L124.44,73.36 L125.86,73.32 L127.06,73.35 L128.09,73.55 L129.13,73.95 L129.83,74.26 L131.08,75.14 L138.33,80.02 L141.03,81.80 L142.35,83.05 L143.33,83.95 L144.40,85.29 L145.48,87.28 L146.56,89.76 L149.43,97.59 L151.14,102.56 L151.47,103.95 L151.65,104.64 L151.67,105.07 L151.22,105.26 L149.87,105.67 L143.41,107.73 L136.76,109.82 L136.25,109.93 L135.42,110.00 L134.41,109.94 L133.36,109.60 L132.31,109.05 L131.69,108.59 L131.09,107.86 L127.15,102.11 L124.76,99.06 L124.44,98.65 L124.11,98.41 L123.77,98.31 L123.20,98.29 L122.80,98.47 L118.52,102.31 L117.92,102.78 L117.28,103.07 L116.48,103.32 L115.76,103.46 L115.12,103.45 L114.35,103.33 L113.29,103.03 L112.51,102.59 L112.20,102.36 L89.20,83.81 Z" stroke="rgba(0, 212, 255, 0.3)" stroke-width="8" stroke-linecap="round" stroke-linejoin="round" fill="none"/>
  <!-- Main track line -->
  <path d="M89.20,83.81 L82.81,78.83 L73.35,71.21 L72.80,70.78 L72.57,70.17 L72.61,69.91 L72.77,69.66 L73.09,69.05 L73.62,68.30 L73.95,67.35 L74.14,66.17 L74.18,65.31 L73.85,63.63 L73.43,62.78 L72.78,61.89 L72.02,61.17 L70.34,59.85 L68.34,58.40 L65.53,56.25 L62.10,53.36 L60.72,52.20 L57.07,48.58 L55.25,46.66 L53.38,44.33 L49.76,39.34 L48.87,37.94 L48.33,36.89 L48.40,36.30 L48.71,35.89 L49.47,35.59 L52.02,35.24 L56.84,34.46 L57.40,34.28 L57.75,34.10 L57.99,33.84 L58.34,33.01 L58.41,32.15 L58.09,24.71 L57.97,21.98 L58.06,21.75 L59.08,20.81 L60.02,20.25 L67.19,16.16 L68.78,15.44 L76.18,13.05 L78.98,12.25 L81.51,11.05 L83.43,10.13 L84.29,10.01 L84.98,10.00 L85.61,10.30 L86.45,11.07 L87.46,11.78 L88.84,12.55 L90.60,13.07 L92.88,13.29 L94.94,13.37 L96.68,13.57 L98.63,14.11 L100.35,14.75 L102.25,15.87 L103.53,16.77 L104.80,18.08 L106.00,19.72 L106.67,21.38 L107.09,22.67 L107.30,23.75 L109.04,31.23 L109.05,32.17 L108.86,33.29 L108.40,34.44 L107.85,35.42 L106.88,36.51 L105.98,37.38 L104.99,38.43 L104.50,39.20 L104.06,40.07 L103.74,41.05 L101.77,49.29 L101.62,50.29 L101.54,51.49 L101.54,52.58 L101.66,54.56 L101.95,56.10 L102.48,57.87 L103.14,59.58 L103.99,61.05 L104.89,62.41 L106.37,64.24 L107.36,65.40 L109.35,67.06 L115.91,71.67 L116.95,72.31 L117.92,72.73 L118.64,73.00 L120.02,73.33 L121.36,73.42 L122.98,73.37 L124.44,73.36 L125.86,73.32 L127.06,73.35 L128.09,73.55 L129.13,73.95 L129.83,74.26 L131.08,75.14 L138.33,80.02 L141.03,81.80 L142.35,83.05 L143.33,83.95 L144.40,85.29 L145.48,87.28 L146.56,89.76 L149.43,97.59 L151.14,102.56 L151.47,103.95 L151.65,104.64 L151.67,105.07 L151.22,105.26 L149.87,105.67 L143.41,107.73 L136.76,109.82 L136.25,109.93 L135.42,110.00 L134.41,109.94 L133.36,109.60 L132.31,109.05 L131.69,108.59 L131.09,107.86 L127.15,102.11 L124.76,99.06 L124.44,98.65 L124.11,98.41 L123.77,98.31 L123.20,98.29 L122.80,98.47 L118.52,102.31 L117.92,102.78 L117.28,103.07 L116.48,103.32 L115.76,103.46 L115.12,103.45 L114.35,103.33 L113.29,103.03 L112.51,102.59 L112.20,102.36 L89.20,83.81 Z" stroke="#00d4ff" stroke-width="2" stroke-linecap="round" stroke-linejoin="round" fill="none"/>
</svg>