<?xml version="1.0" encoding="UTF-8"?>
<svg viewBox="0 0 200 120" xmlns="http://www.w3.org/2000/svg" fill="none" preserveAspectRatio="xMidYMid meet">
  <!-- Bahrain International Circuit Circuit -->
  <!-- Track glow effect -->
  <path d="M64.87,57.40 L65.74,29.34 L66.57,10.95 L66.96,10.13 L67.77,10.00 L68.65,10.21 L69.31,10.65 L73.53,14.49 L74.68,14.88 L75.94,14.80 L83.28,12.66 L85.04,12.48 L86.63,12.57 L134.80,20.95 L136.45,21.39 L137.33,22.21 L137.55,23.27 L137.38,24.27 L136.83,25.40 L135.79,26.54 L134.59,27.46 L132.94,28.59 L127.14,32.47 L122.47,36.84 L121.32,37.85 L120.40,39.28 L118.31,43.52 L117.60,44.44 L116.50,45.09 L115.40,45.61 L113.65,45.79 L108.39,45.00 L106.96,45.05 L105.49,45.31 L104.27,45.87 L102.80,47.10 L92.11,59.27 L91.07,60.11 L89.59,60.32 L88.66,59.67 L88.33,58.36 L88.38,56.36 L90.96,42.56 L92.44,33.92 L92.66,32.22 L92.38,30.64 L92.00,29.46 L91.24,28.29 L86.85,24.88 L86.24,24.62 L85.59,24.79 L85.21,25.40 L83.61,36.06 L83.18,43.17 L82.41,55.96 L81.86,69.32 L81.31,81.50 L81.53,83.50 L82.41,84.68 L83.78,85.33 L85.70,85.68 L87.67,85.55 L90.13,85.12 L92.66,84.03 L94.79,82.67 L96.87,80.76 L98.14,78.88 L100.50,73.38 L101.81,71.06 L103.07,69.71 L104.72,68.49 L106.69,67.39 L109.43,66.78 L112.44,66.74 L114.58,67.18 L117.43,68.40 L124.94,71.76 L126.48,72.77 L127.79,73.94 L128.45,75.03 L129.27,76.26 L129.27,77.35 L128.61,78.48 L127.29,79.62 L125.49,80.84 L68.59,109.47 L67.56,109.95 L65.91,110.00 L65.20,109.39 L62.68,104.58 L62.45,102.67 L62.51,99.05 L63.22,79.18 L64.87,57.40 Z" stroke="rgba(0, 212, 255, 0.3)" stroke-width="8" stroke-linecap="round" stroke-linejoin="round" fill="none"/>
  <!-- Main track line -->
  <path d="M64.87,57.40 L65.74,29.34 L66.57,10.95 L66.96,10.13 L67.77,10.00 L68.65,10.21 L69.31,10.65 L73.53,14.49 L74.68,14.88 L75.94,14.80 L83.28,12.66 L85.04,12.48 L86.63,12.57 L134.80,20.95 L136.45,21.39 L137.33,22.21 L137.55,23.27 L137.38,24.27 L136.83,25.40 L135.79,26.54 L134.59,27.46 L132.94,28.59 L127.14,32.47 L122.47,36.84 L121.32,37.85 L120.40,39.28 L118.31,43.52 L117.60,44.44 L116.50,45.09 L115.40,45.61 L113.65,45.79 L108.39,45.00 L106.96,45.05 L105.49,45.31 L104.27,45.87 L102.80,47.10 L92.11,59.27 L91.07,60.11 L89.59,60.32 L88.66,59.67 L88.33,58.36 L88.38,56.36 L90.96,42.56 L92.44,33.92 L92.66,32.22 L92.38,30.64 L92.00,29.46 L91.24,28.29 L86.85,24.88 L86.24,24.62 L85.59,24.79 L85.21,25.40 L83.61,36.06 L83.18,43.17 L82.41,55.96 L81.86,69.32 L81.31,81.50 L81.53,83.50 L82.41,84.68 L83.78,85.33 L85.70,85.68 L87.67,85.55 L90.13,85.12 L92.66,84.03 L94.79,82.67 L96.87,80.76 L98.14,78.88 L100.50,73.38 L101.81,71.06 L103.07,69.71 L104.72,68.49 L106.69,67.39 L109.43,66.78 L112.44,66.74 L114.58,67.18 L117.43,68.40 L124.94,71.76 L126.48,72.77 L127.79,73.94 L128.45,75.03 L129.27,76.26 L129.27,77.35 L128.61,78.48 L127.29,79.62 L125.49,80.84 L68.59,109.47 L67.56,109.95 L65.91,110.00 L65.20,109.39 L62.68,104.58 L62.45,102.67 L62.51,99.05 L63.22,79.18 L64.87,57.40 Z" stroke="#00d4ff" stroke-width="2" stroke-linecap="round" stroke-linejoin="round" fill="none"/>
</svg>