<?xml version="1.0" encoding="UTF-8"?>
<svg viewBox="0 0 200 120" xmlns="http://www.w3.org/2000/svg" fill="none" preserveAspectRatio="xMidYMid meet">
  <!-- Baku City Circuit Circuit -->
  <!-- Track glow effect -->
  <path d="M175.42,35.61 L188.57,31.32 L189.27,30.90 L189.71,30.28 L189.80,29.68 L189.58,28.81 L186.91,23.54 L182.39,16.87 L178.67,10.41 L178.05,10.10 L177.27,10.00 L164.69,13.83 L149.31,18.37 L128.32,25.56 L110.23,31.87 L109.05,32.82 L109.05,34.11 L114.96,45.80 L115.00,46.71 L114.09,47.51 L103.79,51.21 L97.96,53.65 L90.12,57.49 L89.64,57.98 L89.81,58.68 L91.12,60.87 L91.08,61.50 L90.42,61.99 L87.45,63.98 L69.57,74.52 L66.55,76.61 L65.28,77.27 L64.00,77.24 L62.95,76.36 L58.22,65.76 L57.65,65.30 L56.78,65.16 L55.64,65.16 L53.93,64.36 L52.88,64.16 L51.78,64.19 L50.73,64.26 L49.59,63.91 L49.02,63.25 L48.01,60.74 L47.53,60.28 L46.83,59.93 L45.78,59.89 L38.24,61.88 L26.23,66.36 L18.31,69.98 L16.73,70.96 L15.50,72.21 L14.36,73.99 L10.47,84.08 L10.20,85.44 L11.47,99.36 L11.87,100.24 L12.83,101.10 L29.08,107.59 L33.64,109.13 L36.14,109.83 L37.54,110.00 L39.16,109.79 L40.30,109.20 L41.05,108.57 L45.95,101.66 L47.09,100.06 L48.40,98.77 L62.38,89.07 L63.52,87.84 L64.09,86.66 L65.32,80.27 L65.84,79.02 L66.90,77.83 L68.12,76.99 L88.24,65.10 L90.95,63.73 L94.02,62.48 L96.87,61.43 L105.94,58.54 L114.00,55.67 L133.67,49.26 L141.65,46.49 L162.06,39.87 L175.42,35.61 Z" stroke="rgba(0, 212, 255, 0.3)" stroke-width="8" stroke-linecap="round" stroke-linejoin="round" fill="none"/>
  <!-- Main track line -->
  <path d="M175.42,35.61 L188.57,31.32 L189.27,30.90 L189.71,30.28 L189.80,29.68 L189.58,28.81 L186.91,23.54 L182.39,16.87 L178.67,10.41 L178.05,10.10 L177.27,10.00 L164.69,13.83 L149.31,18.37 L128.32,25.56 L110.23,31.87 L109.05,32.82 L109.05,34.11 L114.96,45.80 L115.00,46.71 L114.09,47.51 L103.79,51.21 L97.96,53.65 L90.12,57.49 L89.64,57.98 L89.81,58.68 L91.12,60.87 L91.08,61.50 L90.42,61.99 L87.45,63.98 L69.57,74.52 L66.55,76.61 L65.28,77.27 L64.00,77.24 L62.95,76.36 L58.22,65.76 L57.65,65.30 L56.78,65.16 L55.64,65.16 L53.93,64.36 L52.88,64.16 L51.78,64.19 L50.73,64.26 L49.59,63.91 L49.02,63.25 L48.01,60.74 L47.53,60.28 L46.83,59.93 L45.78,59.89 L38.24,61.88 L26.23,66.36 L18.31,69.98 L16.73,70.96 L15.50,72.21 L14.36,73.99 L10.47,84.08 L10.20,85.44 L11.47,99.36 L11.87,100.24 L12.83,101.10 L29.08,107.59 L33.64,109.13 L36.14,109.83 L37.54,110.00 L39.16,109.79 L40.30,109.20 L41.05,108.57 L45.95,101.66 L47.09,100.06 L48.40,98.77 L62.38,89.07 L63.52,87.84 L64.09,86.66 L65.32,80.27 L65.84,79.02 L66.90,77.83 L68.12,76.99 L88.24,65.10 L90.95,63.73 L94.02,62.48 L96.87,61.43 L105.94,58.54 L114.00,55.67 L133.67,49.26 L141.65,46.49 L162.06,39.87 L175.42,35.61 Z" stroke="#00d4ff" stroke-width="2" stroke-linecap="round" stroke-linejoin="round" fill="none"/>
</svg>