<?xml version="1.0" encoding="UTF-8"?>
<svg viewBox="0 0 200 120" xmlns="http://www.w3.org/2000/svg" fill="none" preserveAspectRatio="xMidYMid meet">
  <!-- Circuit de Barcelona-Catalunya Circuit -->
  <!-- Track glow effect -->
  <path d="M131.42,54.66 L117.28,71.46 L109.46,80.88 L101.33,90.48 L92.82,100.71 L89.91,104.17 L88.99,104.95 L88.15,105.49 L87.43,105.74 L86.15,105.86 L84.97,105.81 L84.10,105.64 L83.26,105.30 L80.33,103.89 L79.40,103.58 L77.73,103.31 L76.39,103.31 L74.47,103.62 L73.38,104.13 L65.24,108.68 L64.10,109.11 L62.93,109.43 L61.36,109.83 L59.87,110.00 L58.58,110.00 L57.17,109.94 L55.59,109.79 L54.07,109.42 L52.23,108.74 L51.29,108.22 L50.42,107.65 L49.63,107.12 L47.55,105.08 L46.53,103.50 L45.79,101.74 L45.60,100.50 L45.41,99.02 L45.46,97.46 L45.77,95.80 L46.65,93.17 L47.61,91.05 L48.66,89.38 L49.77,88.07 L63.91,71.24 L64.77,70.64 L65.95,70.12 L68.15,69.72 L69.56,69.84 L70.69,70.09 L72.00,70.64 L73.47,71.53 L74.42,72.34 L75.56,74.04 L75.96,75.33 L76.08,77.33 L75.98,78.52 L75.58,79.86 L74.82,81.18 L73.40,83.21 L63.13,95.22 L62.84,96.04 L62.83,96.75 L63.08,97.60 L63.55,98.19 L64.07,98.68 L64.89,99.11 L65.90,99.37 L66.70,99.47 L67.99,99.29 L68.59,99.11 L84.03,93.88 L86.17,92.89 L88.30,91.67 L90.44,90.15 L91.95,88.78 L98.09,81.57 L98.76,80.49 L99.04,79.74 L98.78,78.56 L98.00,77.50 L96.79,76.65 L93.98,75.41 L92.46,74.49 L91.62,73.78 L90.79,72.87 L90.32,72.25 L86.46,65.36 L82.08,57.60 L81.73,56.27 L81.73,54.90 L81.91,53.85 L82.19,52.84 L83.05,51.67 L83.72,50.87 L85.13,49.71 L86.55,48.88 L135.67,30.03 L137.39,29.30 L138.29,28.58 L138.73,27.89 L138.84,27.06 L138.49,26.13 L137.91,25.39 L137.08,24.78 L135.87,24.09 L133.91,23.45 L132.70,23.23 L131.02,23.06 L129.58,23.01 L128.14,23.08 L126.55,23.38 L124.36,24.18 L122.85,24.83 L120.75,26.21 L118.67,27.33 L117.23,27.81 L115.01,27.94 L113.68,27.72 L112.10,27.11 L110.83,26.32 L110.05,25.39 L109.41,24.35 L109.21,23.20 L109.16,22.66 L109.59,21.15 L110.37,20.07 L111.58,19.19 L123.29,11.98 L124.44,11.25 L125.90,10.61 L127.23,10.26 L129.07,10.04 L130.89,10.00 L132.56,10.26 L133.92,10.69 L136.68,12.01 L139.77,13.49 L142.44,14.87 L144.16,15.62 L149.98,18.39 L151.38,19.12 L152.27,19.82 L153.08,20.64 L153.73,21.58 L154.27,22.83 L154.57,23.99 L154.59,25.66 L154.27,27.17 L152.65,29.56 L131.42,54.66 Z" stroke="rgba(0, 212, 255, 0.3)" stroke-width="8" stroke-linecap="round" stroke-linejoin="round" fill="none"/>
  <!-- Main track line -->
  <path d="M131.42,54.66 L117.28,71.46 L109.46,80.88 L101.33,90.48 L92.82,100.71 L89.91,104.17 L88.99,104.95 L88.15,105.49 L87.43,105.74 L86.15,105.86 L84.97,105.81 L84.10,105.64 L83.26,105.30 L80.33,103.89 L79.40,103.58 L77.73,103.31 L76.39,103.31 L74.47,103.62 L73.38,104.13 L65.24,108.68 L64.10,109.11 L62.93,109.43 L61.36,109.83 L59.87,110.00 L58.58,110.00 L57.17,109.94 L55.59,109.79 L54.07,109.42 L52.23,108.74 L51.29,108.22 L50.42,107.65 L49.63,107.12 L47.55,105.08 L46.53,103.50 L45.79,101.74 L45.60,100.50 L45.41,99.02 L45.46,97.46 L45.77,95.80 L46.65,93.17 L47.61,91.05 L48.66,89.38 L49.77,88.07 L63.91,71.24 L64.77,70.64 L65.95,70.12 L68.15,69.72 L69.56,69.84 L70.69,70.09 L72.00,70.64 L73.47,71.53 L74.42,72.34 L75.56,74.04 L75.96,75.33 L76.08,77.33 L75.98,78.52 L75.58,79.86 L74.82,81.18 L73.40,83.21 L63.13,95.22 L62.84,96.04 L62.83,96.75 L63.08,97.60 L63.55,98.19 L64.07,98.68 L64.89,99.11 L65.90,99.37 L66.70,99.47 L67.99,99.29 L68.59,99.11 L84.03,93.88 L86.17,92.89 L88.30,91.67 L90.44,90.15 L91.95,88.78 L98.09,81.57 L98.76,80.49 L99.04,79.74 L98.78,78.56 L98.00,77.50 L96.79,76.65 L93.98,75.41 L92.46,74.49 L91.62,73.78 L90.79,72.87 L90.32,72.25 L86.46,65.36 L82.08,57.60 L81.73,56.27 L81.73,54.90 L81.91,53.85 L82.19,52.84 L83.05,51.67 L83.72,50.87 L85.13,49.71 L86.55,48.88 L135.67,30.03 L137.39,29.30 L138.29,28.58 L138.73,27.89 L138.84,27.06 L138.49,26.13 L137.91,25.39 L137.08,24.78 L135.87,24.09 L133.91,23.45 L132.70,23.23 L131.02,23.06 L129.58,23.01 L128.14,23.08 L126.55,23.38 L124.36,24.18 L122.85,24.83 L120.75,26.21 L118.67,27.33 L117.23,27.81 L115.01,27.94 L113.68,27.72 L112.10,27.11 L110.83,26.32 L110.05,25.39 L109.41,24.35 L109.21,23.20 L109.16,22.66 L109.59,21.15 L110.37,20.07 L111.58,19.19 L123.29,11.98 L124.44,11.25 L125.90,10.61 L127.23,10.26 L129.07,10.04 L130.89,10.00 L132.56,10.26 L133.92,10.69 L136.68,12.01 L139.77,13.49 L142.44,14.87 L144.16,15.62 L149.98,18.39 L151.38,19.12 L152.27,19.82 L153.08,20.64 L153.73,21.58 L154.27,22.83 L154.57,23.99 L154.59,25.66 L154.27,27.17 L152.65,29.56 L131.42,54.66 Z" stroke="#00d4ff" stroke-width="2" stroke-linecap="round" stroke-linejoin="round" fill="none"/>
</svg>