<?xml version="1.0" encoding="UTF-8"?>
<svg viewBox="0 0 200 120" xmlns="http://www.w3.org/2000/svg" fill="none" preserveAspectRatio="xMidYMid meet">
  <!-- Circuit of the Americas Circuit -->
  <!-- Track glow effect -->
  <path d="M46.10,88.24 L62.36,99.45 L66.85,102.17 L70.32,103.96 L71.61,104.49 L72.11,104.62 L72.67,104.53 L73.17,104.27 L73.51,103.82 L73.68,103.42 L73.63,102.92 L70.09,94.13 L68.52,90.07 L68.25,88.82 L68.19,87.75 L68.25,86.50 L68.52,85.34 L69.02,83.87 L69.81,82.62 L70.65,81.50 L71.83,80.33 L73.12,79.53 L74.86,78.59 L84.33,73.51 L88.20,71.40 L89.04,70.69 L89.77,69.84 L90.38,69.13 L90.89,68.15 L91.28,67.30 L92.30,64.85 L92.97,64.04 L93.81,63.11 L94.93,62.48 L95.83,62.07 L98.06,61.32 L99.81,60.56 L100.81,59.89 L101.43,59.22 L101.99,58.32 L102.21,57.25 L102.55,55.43 L102.72,54.26 L103.05,52.97 L103.51,52.03 L104.07,51.13 L104.80,50.24 L105.58,49.44 L106.76,48.55 L108.10,47.70 L109.56,46.99 L111.12,46.41 L112.48,46.13 L113.60,46.10 L114.50,46.13 L115.95,46.49 L125.25,50.20 L126.15,50.51 L127.10,50.51 L127.83,50.24 L129.69,49.26 L131.87,47.74 L133.44,46.36 L135.01,44.53 L136.18,43.33 L137.25,42.61 L138.43,42.17 L139.33,41.99 L140.62,41.99 L142.08,42.35 L143.19,42.88 L144.09,43.64 L144.60,44.17 L145.10,44.85 L145.55,45.60 L146.22,46.23 L147.01,46.49 L147.79,46.49 L164.55,43.28 L165.62,42.97 L166.29,42.66 L166.80,42.25 L176.61,31.95 L185.24,22.92 L188.54,19.26 L189.90,17.12 L190.00,16.58 L189.84,16.09 L189.44,15.83 L188.94,15.51 L188.38,15.38 L187.76,15.42 L186.92,15.60 L168.98,20.56 L156.48,23.59 L142.69,26.49 L126.21,29.35 L115.90,30.83 L106.36,32.03 L78.28,34.71 L75.14,35.20 L74.75,35.42 L74.57,35.87 L74.63,36.23 L75.03,36.72 L76.88,38.50 L83.27,46.10 L86.07,50.03 L86.24,50.60 L86.07,51.45 L85.67,52.03 L84.95,52.48 L84.33,52.61 L83.16,52.75 L77.95,52.39 L77.43,52.17 L76.99,51.81 L76.54,51.36 L76.15,50.74 L75.09,48.24 L74.63,47.25 L73.90,46.36 L70.48,43.33 L69.98,42.97 L69.37,42.74 L68.75,42.66 L65.39,42.39 L64.72,42.43 L64.32,42.66 L63.93,43.06 L63.76,43.60 L63.99,44.22 L70.48,53.91 L73.12,58.19 L73.34,59.36 L73.29,60.51 L73.07,61.45 L72.78,62.39 L72.06,64.13 L71.04,66.05 L70.37,66.81 L69.25,67.52 L67.96,68.06 L62.64,70.15 L61.57,70.38 L60.51,70.43 L58.55,70.30 L56.69,70.07 L54.90,69.58 L52.94,68.90 L51.20,68.01 L50.03,67.25 L49.24,66.10 L43.13,58.68 L38.37,53.50 L37.75,52.97 L37.02,52.70 L36.06,52.53 L35.22,52.57 L34.05,52.84 L32.65,53.24 L31.47,53.64 L11.79,61.10 L10.67,61.76 L10.23,62.39 L10.00,63.06 L10.23,63.55 L10.67,64.00 L11.23,64.44 L21.55,71.63 L46.10,88.24 Z" stroke="rgba(0, 212, 255, 0.3)" stroke-width="8" stroke-linecap="round" stroke-linejoin="round" fill="none"/>
  <!-- Main track line -->
  <path d="M46.10,88.24 L62.36,99.45 L66.85,102.17 L70.32,103.96 L71.61,104.49 L72.11,104.62 L72.67,104.53 L73.17,104.27 L73.51,103.82 L73.68,103.42 L73.63,102.92 L70.09,94.13 L68.52,90.07 L68.25,88.82 L68.19,87.75 L68.25,86.50 L68.52,85.34 L69.02,83.87 L69.81,82.62 L70.65,81.50 L71.83,80.33 L73.12,79.53 L74.86,78.59 L84.33,73.51 L88.20,71.40 L89.04,70.69 L89.77,69.84 L90.38,69.13 L90.89,68.15 L91.28,67.30 L92.30,64.85 L92.97,64.04 L93.81,63.11 L94.93,62.48 L95.83,62.07 L98.06,61.32 L99.81,60.56 L100.81,59.89 L101.43,59.22 L101.99,58.32 L102.21,57.25 L102.55,55.43 L102.72,54.26 L103.05,52.97 L103.51,52.03 L104.07,51.13 L104.80,50.24 L105.58,49.44 L106.76,48.55 L108.10,47.70 L109.56,46.99 L111.12,46.41 L112.48,46.13 L113.60,46.10 L114.50,46.13 L115.95,46.49 L125.25,50.20 L126.15,50.51 L127.10,50.51 L127.83,50.24 L129.69,49.26 L131.87,47.74 L133.44,46.36 L135.01,44.53 L136.18,43.33 L137.25,42.61 L138.43,42.17 L139.33,41.99 L140.62,41.99 L142.08,42.35 L143.19,42.88 L144.09,43.64 L144.60,44.17 L145.10,44.85 L145.55,45.60 L146.22,46.23 L147.01,46.49 L147.79,46.49 L164.55,43.28 L165.62,42.97 L166.29,42.66 L166.80,42.25 L176.61,31.95 L185.24,22.92 L188.54,19.26 L189.90,17.12 L190.00,16.58 L189.84,16.09 L189.44,15.83 L188.94,15.51 L188.38,15.38 L187.76,15.42 L186.92,15.60 L168.98,20.56 L156.48,23.59 L142.69,26.49 L126.21,29.35 L115.90,30.83 L106.36,32.03 L78.28,34.71 L75.14,35.20 L74.75,35.42 L74.57,35.87 L74.63,36.23 L75.03,36.72 L76.88,38.50 L83.27,46.10 L86.07,50.03 L86.24,50.60 L86.07,51.45 L85.67,52.03 L84.95,52.48 L84.33,52.61 L83.16,52.75 L77.95,52.39 L77.43,52.17 L76.99,51.81 L76.54,51.36 L76.15,50.74 L75.09,48.24 L74.63,47.25 L73.90,46.36 L70.48,43.33 L69.98,42.97 L69.37,42.74 L68.75,42.66 L65.39,42.39 L64.72,42.43 L64.32,42.66 L63.93,43.06 L63.76,43.60 L63.99,44.22 L70.48,53.91 L73.12,58.19 L73.34,59.36 L73.29,60.51 L73.07,61.45 L72.78,62.39 L72.06,64.13 L71.04,66.05 L70.37,66.81 L69.25,67.52 L67.96,68.06 L62.64,70.15 L61.57,70.38 L60.51,70.43 L58.55,70.30 L56.69,70.07 L54.90,69.58 L52.94,68.90 L51.20,68.01 L50.03,67.25 L49.24,66.10 L43.13,58.68 L38.37,53.50 L37.75,52.97 L37.02,52.70 L36.06,52.53 L35.22,52.57 L34.05,52.84 L32.65,53.24 L31.47,53.64 L11.79,61.10 L10.67,61.76 L10.23,62.39 L10.00,63.06 L10.23,63.55 L10.67,64.00 L11.23,64.44 L21.55,71.63 L46.10,88.24 Z" stroke="#00d4ff" stroke-width="2" stroke-linecap="round" stroke-linejoin="round" fill="none"/>
</svg>