<?xml version="1.0" encoding="UTF-8"?>
<svg viewBox="0 0 200 120" xmlns="http://www.w3.org/2000/svg" fill="none" preserveAspectRatio="xMidYMid meet">
  <!-- Hungaroring Circuit -->
  <!-- Track glow effect -->
  <path d="M67.17,85.34 L42.75,72.17 L35.54,68.36 L34.88,67.63 L34.50,66.89 L34.61,66.07 L35.10,65.43 L35.80,64.99 L36.73,64.69 L38.09,64.55 L40.09,64.55 L45.69,64.65 L49.43,65.08 L52.85,65.76 L56.44,66.72 L59.15,67.75 L61.21,68.71 L81.14,79.35 L82.60,79.86 L84.01,80.08 L85.42,80.08 L86.57,79.82 L87.82,79.51 L88.79,79.00 L89.60,78.39 L90.14,77.83 L90.63,77.05 L90.80,75.97 L90.74,75.37 L90.31,74.54 L89.93,73.73 L84.23,67.20 L83.63,65.98 L83.52,65.03 L83.85,64.21 L84.28,63.18 L84.83,62.22 L91.13,53.75 L102.31,38.49 L104.32,36.07 L106.65,33.95 L109.58,31.65 L110.18,31.01 L110.62,30.36 L110.72,29.63 L110.40,28.80 L105.30,15.83 L105.19,14.84 L105.34,13.89 L105.73,12.93 L106.32,12.03 L107.41,11.29 L108.71,10.64 L110.07,10.17 L111.42,10.00 L113.11,10.04 L114.73,10.30 L116.70,10.86 L118.92,11.82 L120.49,12.55 L122.34,13.46 L124.29,14.49 L126.74,16.22 L137.16,23.83 L137.65,24.56 L137.81,25.13 L137.76,25.74 L137.21,26.25 L136.34,26.81 L135.64,27.29 L135.37,27.72 L135.43,28.50 L135.69,29.36 L139.49,39.01 L140.31,40.30 L140.90,40.83 L141.50,41.29 L142.31,41.73 L143.30,41.95 L145.14,42.20 L153.01,42.98 L154.64,43.41 L155.67,43.89 L156.54,44.37 L157.30,45.19 L157.57,45.93 L157.90,46.79 L157.90,47.74 L157.62,48.78 L155.67,58.07 L155.61,59.72 L155.78,60.76 L156.21,61.83 L156.81,62.88 L164.52,71.18 L165.28,72.42 L165.45,73.29 L165.50,74.11 L165.34,74.97 L165.06,75.84 L164.52,76.62 L163.65,77.39 L150.40,87.43 L138.63,96.64 L134.61,99.66 L133.63,100.05 L132.71,100.14 L131.84,100.05 L131.08,99.75 L130.32,99.28 L122.28,93.13 L120.98,92.27 L114.84,88.90 L113.76,88.51 L112.68,88.21 L111.37,88.08 L110.23,88.16 L108.71,88.64 L107.79,89.33 L107.14,90.07 L106.76,90.71 L106.65,91.58 L106.81,92.45 L107.35,93.26 L108.06,93.91 L120.16,100.49 L122.39,101.86 L123.04,102.61 L123.53,103.64 L123.75,104.85 L123.59,105.97 L123.04,106.93 L122.39,107.84 L121.37,108.62 L119.68,109.35 L117.94,109.83 L116.05,110.00 L114.04,109.83 L112.24,109.35 L110.56,108.57 L67.17,85.34 Z" stroke="rgba(0, 212, 255, 0.3)" stroke-width="8" stroke-linecap="round" stroke-linejoin="round" fill="none"/>
  <!-- Main track line -->
  <path d="M67.17,85.34 L42.75,72.17 L35.54,68.36 L34.88,67.63 L34.50,66.89 L34.61,66.07 L35.10,65.43 L35.80,64.99 L36.73,64.69 L38.09,64.55 L40.09,64.55 L45.69,64.65 L49.43,65.08 L52.85,65.76 L56.44,66.72 L59.15,67.75 L61.21,68.71 L81.14,79.35 L82.60,79.86 L84.01,80.08 L85.42,80.08 L86.57,79.82 L87.82,79.51 L88.79,79.00 L89.60,78.39 L90.14,77.83 L90.63,77.05 L90.80,75.97 L90.74,75.37 L90.31,74.54 L89.93,73.73 L84.23,67.20 L83.63,65.98 L83.52,65.03 L83.85,64.21 L84.28,63.18 L84.83,62.22 L91.13,53.75 L102.31,38.49 L104.32,36.07 L106.65,33.95 L109.58,31.65 L110.18,31.01 L110.62,30.36 L110.72,29.63 L110.40,28.80 L105.30,15.83 L105.19,14.84 L105.34,13.89 L105.73,12.93 L106.32,12.03 L107.41,11.29 L108.71,10.64 L110.07,10.17 L111.42,10.00 L113.11,10.04 L114.73,10.30 L116.70,10.86 L118.92,11.82 L120.49,12.55 L122.34,13.46 L124.29,14.49 L126.74,16.22 L137.16,23.83 L137.65,24.56 L137.81,25.13 L137.76,25.74 L137.21,26.25 L136.34,26.81 L135.64,27.29 L135.37,27.72 L135.43,28.50 L135.69,29.36 L139.49,39.01 L140.31,40.30 L140.90,40.83 L141.50,41.29 L142.31,41.73 L143.30,41.95 L145.14,42.20 L153.01,42.98 L154.64,43.41 L155.67,43.89 L156.54,44.37 L157.30,45.19 L157.57,45.93 L157.90,46.79 L157.90,47.74 L157.62,48.78 L155.67,58.07 L155.61,59.72 L155.78,60.76 L156.21,61.83 L156.81,62.88 L164.52,71.18 L165.28,72.42 L165.45,73.29 L165.50,74.11 L165.34,74.97 L165.06,75.84 L164.52,76.62 L163.65,77.39 L150.40,87.43 L138.63,96.64 L134.61,99.66 L133.63,100.05 L132.71,100.14 L131.84,100.05 L131.08,99.75 L130.32,99.28 L122.28,93.13 L120.98,92.27 L114.84,88.90 L113.76,88.51 L112.68,88.21 L111.37,88.08 L110.23,88.16 L108.71,88.64 L107.79,89.33 L107.14,90.07 L106.76,90.71 L106.65,91.58 L106.81,92.45 L107.35,93.26 L108.06,93.91 L120.16,100.49 L122.39,101.86 L123.04,102.61 L123.53,103.64 L123.75,104.85 L123.59,105.97 L123.04,106.93 L122.39,107.84 L121.37,108.62 L119.68,109.35 L117.94,109.83 L116.05,110.00 L114.04,109.83 L112.24,109.35 L110.56,108.57 L67.17,85.34 Z" stroke="#00d4ff" stroke-width="2" stroke-linecap="round" stroke-linejoin="round" fill="none"/>
</svg>