<?xml version="1.0" encoding="UTF-8"?>
<svg viewBox="0 0 200 120" xmlns="http://www.w3.org/2000/svg" fill="none" preserveAspectRatio="xMidYMid meet">
  <!-- Autodromo Enzo e Dino Ferrari Circuit -->
  <!-- Track glow effect -->
  <path d="M124.19,34.51 L121.00,34.47 L101.09,31.42 L93.98,30.88 L89.84,30.85 L69.06,32.18 L58.86,33.91 L57.59,34.51 L56.98,35.04 L56.80,35.54 L56.05,37.87 L55.50,38.61 L54.23,39.24 L44.84,42.66 L43.44,43.78 L28.29,70.63 L28.11,71.35 L28.14,72.22 L29.74,76.39 L29.74,77.06 L29.22,77.87 L28.64,78.42 L10.70,89.39 L10.19,90.02 L10.00,90.77 L10.23,91.57 L10.89,92.53 L11.74,93.05 L12.72,93.26 L14.21,93.25 L43.13,90.56 L46.42,90.40 L51.29,90.59 L54.82,90.96 L59.62,91.61 L64.55,92.26 L67.10,92.62 L68.71,92.38 L69.93,91.95 L71.51,90.85 L73.10,88.79 L75.54,84.44 L76.11,82.54 L76.28,80.37 L75.81,78.17 L72.28,66.23 L72.33,65.48 L72.83,64.62 L74.88,62.31 L77.57,59.32 L78.36,59.03 L79.40,58.96 L80.12,59.18 L84.10,60.33 L85.32,60.44 L127.02,60.25 L127.56,60.41 L128.08,61.30 L128.47,62.08 L128.92,62.27 L129.80,62.29 L146.45,57.38 L148.56,56.54 L155.49,53.12 L159.46,50.53 L163.31,47.77 L172.70,41.18 L174.59,40.22 L176.66,39.50 L188.94,35.60 L189.87,34.95 L190.00,33.93 L189.75,33.12 L186.05,27.52 L185.18,26.99 L184.23,26.78 L182.90,26.74 L181.83,26.93 L165.32,31.42 L159.46,33.03 L156.27,33.86 L153.49,34.31 L151.61,34.55 L124.19,34.51 Z" stroke="rgba(0, 212, 255, 0.3)" stroke-width="8" stroke-linecap="round" stroke-linejoin="round" fill="none"/>
  <!-- Main track line -->
  <path d="M124.19,34.51 L121.00,34.47 L101.09,31.42 L93.98,30.88 L89.84,30.85 L69.06,32.18 L58.86,33.91 L57.59,34.51 L56.98,35.04 L56.80,35.54 L56.05,37.87 L55.50,38.61 L54.23,39.24 L44.84,42.66 L43.44,43.78 L28.29,70.63 L28.11,71.35 L28.14,72.22 L29.74,76.39 L29.74,77.06 L29.22,77.87 L28.64,78.42 L10.70,89.39 L10.19,90.02 L10.00,90.77 L10.23,91.57 L10.89,92.53 L11.74,93.05 L12.72,93.26 L14.21,93.25 L43.13,90.56 L46.42,90.40 L51.29,90.59 L54.82,90.96 L59.62,91.61 L64.55,92.26 L67.10,92.62 L68.71,92.38 L69.93,91.95 L71.51,90.85 L73.10,88.79 L75.54,84.44 L76.11,82.54 L76.28,80.37 L75.81,78.17 L72.28,66.23 L72.33,65.48 L72.83,64.62 L74.88,62.31 L77.57,59.32 L78.36,59.03 L79.40,58.96 L80.12,59.18 L84.10,60.33 L85.32,60.44 L127.02,60.25 L127.56,60.41 L128.08,61.30 L128.47,62.08 L128.92,62.27 L129.80,62.29 L146.45,57.38 L148.56,56.54 L155.49,53.12 L159.46,50.53 L163.31,47.77 L172.70,41.18 L174.59,40.22 L176.66,39.50 L188.94,35.60 L189.87,34.95 L190.00,33.93 L189.75,33.12 L186.05,27.52 L185.18,26.99 L184.23,26.78 L182.90,26.74 L181.83,26.93 L165.32,31.42 L159.46,33.03 L156.27,33.86 L153.49,34.31 L151.61,34.55 L124.19,34.51 Z" stroke="#00d4ff" stroke-width="2" stroke-linecap="round" stroke-linejoin="round" fill="none"/>
</svg>