<?xml version="1.0" encoding="UTF-8"?>
<svg viewBox="0 0 200 120" xmlns="http://www.w3.org/2000/svg" fill="none" preserveAspectRatio="xMidYMid meet">
  <!-- Autódromo José Carlos Pace - Interlagos Circuit -->
  <!-- Track glow effect -->
  <path d="M72.20,81.78 L78.31,103.43 L78.96,105.71 L79.60,107.03 L81.07,109.02 L81.82,109.59 L82.90,109.99 L83.98,110.00 L85.15,109.78 L85.77,109.48 L87.68,107.87 L89.53,105.98 L90.27,105.48 L91.22,105.17 L92.19,105.12 L93.59,105.53 L96.56,107.20 L98.91,108.09 L100.66,108.50 L102.27,108.70 L103.73,108.77 L105.88,108.54 L107.53,108.21 L109.55,107.54 L111.45,106.53 L113.33,105.18 L114.85,103.72 L116.05,102.16 L116.94,100.70 L117.68,99.05 L120.59,90.26 L121.82,85.84 L123.92,78.35 L126.49,68.78 L130.99,53.10 L132.62,47.45 L133.76,43.48 L134.29,41.64 L134.50,40.47 L134.37,39.38 L134.07,38.63 L133.42,37.75 L132.26,37.01 L130.90,36.49 L128.94,36.12 L123.07,35.06 L120.78,34.82 L119.36,34.92 L117.62,35.14 L115.97,35.59 L114.52,36.37 L113.14,37.12 L111.76,38.16 L110.43,39.50 L108.62,41.61 L102.66,48.99 L99.16,53.53 L96.18,57.41 L92.91,61.34 L91.19,63.52 L89.86,65.17 L88.94,66.10 L87.91,66.68 L86.45,67.16 L84.83,67.35 L82.42,67.30 L80.80,67.05 L79.52,66.68 L78.37,66.21 L76.41,65.23 L75.43,64.43 L74.79,63.65 L74.16,62.51 L73.68,60.98 L73.09,58.71 L72.60,56.63 L71.94,52.81 L71.82,51.23 L71.85,49.62 L72.26,48.40 L72.93,47.79 L73.40,47.57 L73.98,47.39 L74.78,47.30 L75.62,47.49 L76.50,47.81 L78.87,49.47 L79.83,49.99 L80.57,50.27 L81.37,50.42 L82.10,50.47 L82.90,50.38 L84.01,50.01 L85.31,49.02 L86.04,48.02 L86.44,46.93 L86.50,46.00 L86.34,44.91 L85.90,44.07 L84.88,42.70 L83.95,41.85 L80.70,38.93 L79.02,37.17 L77.86,35.60 L77.03,33.50 L76.38,30.89 L76.08,29.31 L75.92,27.89 L76.03,26.72 L76.53,25.92 L76.94,25.45 L77.61,25.25 L78.16,25.12 L78.87,25.22 L79.70,25.53 L83.68,29.68 L87.12,33.16 L87.71,33.60 L88.99,34.42 L90.17,34.90 L91.15,35.16 L92.35,35.34 L93.46,35.46 L94.74,35.47 L96.76,35.21 L98.30,34.75 L99.93,33.89 L101.59,32.66 L102.51,31.55 L103.50,30.29 L106.14,26.49 L109.05,22.01 L112.35,17.12 L112.57,16.55 L112.62,15.87 L112.42,15.20 L112.04,14.48 L111.30,13.85 L109.57,13.02 L107.06,12.19 L101.96,10.42 L100.96,10.18 L99.69,10.00 L97.12,10.25 L94.87,10.60 L89.95,11.57 L88.31,12.08 L85.07,13.32 L83.47,13.97 L79.65,15.86 L78.13,16.80 L76.84,17.86 L75.52,18.98 L74.45,20.13 L73.49,21.49 L72.62,23.22 L71.92,25.06 L70.82,28.83 L69.62,33.57 L68.83,38.04 L67.46,42.80 L66.58,46.39 L65.81,48.87 L65.56,50.67 L65.50,53.13 L65.65,56.03 L66.00,58.21 L66.60,60.74 L67.63,64.39 L70.63,75.96 L72.20,81.78 Z" stroke="rgba(0, 212, 255, 0.3)" stroke-width="8" stroke-linecap="round" stroke-linejoin="round" fill="none"/>
  <!-- Main track line -->
  <path d="M72.20,81.78 L78.31,103.43 L78.96,105.71 L79.60,107.03 L81.07,109.02 L81.82,109.59 L82.90,109.99 L83.98,110.00 L85.15,109.78 L85.77,109.48 L87.68,107.87 L89.53,105.98 L90.27,105.48 L91.22,105.17 L92.19,105.12 L93.59,105.53 L96.56,107.20 L98.91,108.09 L100.66,108.50 L102.27,108.70 L103.73,108.77 L105.88,108.54 L107.53,108.21 L109.55,107.54 L111.45,106.53 L113.33,105.18 L114.85,103.72 L116.05,102.16 L116.94,100.70 L117.68,99.05 L120.59,90.26 L121.82,85.84 L123.92,78.35 L126.49,68.78 L130.99,53.10 L132.62,47.45 L133.76,43.48 L134.29,41.64 L134.50,40.47 L134.37,39.38 L134.07,38.63 L133.42,37.75 L132.26,37.01 L130.90,36.49 L128.94,36.12 L123.07,35.06 L120.78,34.82 L119.36,34.92 L117.62,35.14 L115.97,35.59 L114.52,36.37 L113.14,37.12 L111.76,38.16 L110.43,39.50 L108.62,41.61 L102.66,48.99 L99.16,53.53 L96.18,57.41 L92.91,61.34 L91.19,63.52 L89.86,65.17 L88.94,66.10 L87.91,66.68 L86.45,67.16 L84.83,67.35 L82.42,67.30 L80.80,67.05 L79.52,66.68 L78.37,66.21 L76.41,65.23 L75.43,64.43 L74.79,63.65 L74.16,62.51 L73.68,60.98 L73.09,58.71 L72.60,56.63 L71.94,52.81 L71.82,51.23 L71.85,49.62 L72.26,48.40 L72.93,47.79 L73.40,47.57 L73.98,47.39 L74.78,47.30 L75.62,47.49 L76.50,47.81 L78.87,49.47 L79.83,49.99 L80.57,50.27 L81.37,50.42 L82.10,50.47 L82.90,50.38 L84.01,50.01 L85.31,49.02 L86.04,48.02 L86.44,46.93 L86.50,46.00 L86.34,44.91 L85.90,44.07 L84.88,42.70 L83.95,41.85 L80.70,38.93 L79.02,37.17 L77.86,35.60 L77.03,33.50 L76.38,30.89 L76.08,29.31 L75.92,27.89 L76.03,26.72 L76.53,25.92 L76.94,25.45 L77.61,25.25 L78.16,25.12 L78.87,25.22 L79.70,25.53 L83.68,29.68 L87.12,33.16 L87.71,33.60 L88.99,34.42 L90.17,34.90 L91.15,35.16 L92.35,35.34 L93.46,35.46 L94.74,35.47 L96.76,35.21 L98.30,34.75 L99.93,33.89 L101.59,32.66 L102.51,31.55 L103.50,30.29 L106.14,26.49 L109.05,22.01 L112.35,17.12 L112.57,16.55 L112.62,15.87 L112.42,15.20 L112.04,14.48 L111.30,13.85 L109.57,13.02 L107.06,12.19 L101.96,10.42 L100.96,10.18 L99.69,10.00 L97.12,10.25 L94.87,10.60 L89.95,11.57 L88.31,12.08 L85.07,13.32 L83.47,13.97 L79.65,15.86 L78.13,16.80 L76.84,17.86 L75.52,18.98 L74.45,20.13 L73.49,21.49 L72.62,23.22 L71.92,25.06 L70.82,28.83 L69.62,33.57 L68.83,38.04 L67.46,42.80 L66.58,46.39 L65.81,48.87 L65.56,50.67 L65.50,53.13 L65.65,56.03 L66.00,58.21 L66.60,60.74 L67.63,64.39 L70.63,75.96 L72.20,81.78 Z" stroke="#00d4ff" stroke-width="2" stroke-linecap="round" stroke-linejoin="round" fill="none"/>
</svg>