<?xml version="1.0" encoding="UTF-8"?>
<svg viewBox="0 0 200 120" xmlns="http://www.w3.org/2000/svg" fill="none" preserveAspectRatio="xMidYMid meet">
  <!-- Jeddah Corniche Circuit Circuit -->
  <!-- Track glow effect -->
  <path d="M105.54,87.00 L100.04,72.06 L99.73,71.81 L99.45,71.78 L98.20,72.16 L97.86,72.08 L97.56,71.94 L97.32,71.64 L97.19,71.23 L97.41,70.08 L98.34,67.39 L98.44,67.00 L98.46,66.22 L98.09,64.10 L96.86,57.39 L96.76,56.03 L96.50,55.58 L95.22,55.11 L94.62,54.76 L94.15,54.38 L93.50,53.43 L93.16,52.48 L93.10,51.33 L93.28,50.43 L93.55,49.91 L94.43,48.67 L94.75,47.99 L94.90,47.28 L94.81,46.20 L94.35,44.38 L93.80,43.57 L93.44,43.30 L92.60,42.75 L92.18,42.46 L91.86,42.13 L91.63,41.30 L91.70,37.80 L91.82,37.04 L92.64,36.07 L93.28,35.65 L94.79,35.15 L95.23,34.93 L95.75,34.15 L96.04,32.60 L96.30,31.37 L96.88,29.61 L97.32,28.52 L97.63,26.71 L97.74,25.49 L97.68,24.11 L97.48,18.68 L97.04,11.66 L96.87,11.20 L96.43,10.63 L95.87,10.28 L95.02,10.00 L94.16,10.13 L93.59,10.40 L93.00,10.77 L92.52,11.61 L92.29,12.77 L92.34,13.81 L92.56,14.65 L93.85,16.75 L94.54,17.74 L95.12,19.18 L95.34,20.09 L95.50,21.36 L95.46,22.35 L95.33,23.50 L94.90,24.70 L94.40,25.72 L93.72,26.94 L93.17,28.12 L92.93,29.41 L92.94,30.29 L92.94,30.97 L92.68,31.48 L92.29,31.92 L91.66,32.25 L90.32,32.62 L89.38,33.36 L88.94,34.03 L88.77,34.60 L88.56,35.73 L88.50,37.03 L88.50,37.91 L88.59,38.90 L88.76,39.95 L89.23,41.26 L90.44,43.68 L91.26,45.53 L91.69,47.11 L91.87,48.51 L91.81,49.87 L91.73,50.70 L91.74,52.47 L91.85,52.98 L91.98,53.79 L92.50,55.26 L92.96,56.18 L93.59,57.17 L94.62,58.69 L95.31,59.84 L95.83,61.06 L96.37,62.91 L96.55,64.28 L96.63,65.81 L96.59,67.22 L96.41,68.50 L96.09,70.21 L95.89,70.80 L95.71,71.34 L95.75,71.83 L95.90,72.33 L96.30,72.87 L96.73,73.23 L97.75,74.01 L98.26,74.58 L98.73,75.38 L99.41,78.30 L99.42,79.06 L99.11,79.93 L98.45,81.09 L96.26,85.06 L95.73,86.28 L95.31,87.70 L95.15,88.70 L95.09,89.61 L95.28,91.68 L95.85,93.74 L96.22,94.99 L96.59,96.20 L97.08,97.70 L97.83,99.29 L98.94,101.17 L99.72,102.20 L100.69,103.39 L102.06,104.86 L103.84,106.32 L105.50,107.37 L108.98,109.63 L109.94,110.00 L110.58,109.83 L111.14,109.50 L111.50,108.93 L111.47,108.32 L110.55,104.54 L108.81,96.72 L107.90,93.72 L107.05,91.25 L105.54,87.00 Z" stroke="rgba(0, 212, 255, 0.3)" stroke-width="8" stroke-linecap="round" stroke-linejoin="round" fill="none"/>
  <!-- Main track line -->
  <path d="M105.54,87.00 L100.04,72.06 L99.73,71.81 L99.45,71.78 L98.20,72.16 L97.86,72.08 L97.56,71.94 L97.32,71.64 L97.19,71.23 L97.41,70.08 L98.34,67.39 L98.44,67.00 L98.46,66.22 L98.09,64.10 L96.86,57.39 L96.76,56.03 L96.50,55.58 L95.22,55.11 L94.62,54.76 L94.15,54.38 L93.50,53.43 L93.16,52.48 L93.10,51.33 L93.28,50.43 L93.55,49.91 L94.43,48.67 L94.75,47.99 L94.90,47.28 L94.81,46.20 L94.35,44.38 L93.80,43.57 L93.44,43.30 L92.60,42.75 L92.18,42.46 L91.86,42.13 L91.63,41.30 L91.70,37.80 L91.82,37.04 L92.64,36.07 L93.28,35.65 L94.79,35.15 L95.23,34.93 L95.75,34.15 L96.04,32.60 L96.30,31.37 L96.88,29.61 L97.32,28.52 L97.63,26.71 L97.74,25.49 L97.68,24.11 L97.48,18.68 L97.04,11.66 L96.87,11.20 L96.43,10.63 L95.87,10.28 L95.02,10.00 L94.16,10.13 L93.59,10.40 L93.00,10.77 L92.52,11.61 L92.29,12.77 L92.34,13.81 L92.56,14.65 L93.85,16.75 L94.54,17.74 L95.12,19.18 L95.34,20.09 L95.50,21.36 L95.46,22.35 L95.33,23.50 L94.90,24.70 L94.40,25.72 L93.72,26.94 L93.17,28.12 L92.93,29.41 L92.94,30.29 L92.94,30.97 L92.68,31.48 L92.29,31.92 L91.66,32.25 L90.32,32.62 L89.38,33.36 L88.94,34.03 L88.77,34.60 L88.56,35.73 L88.50,37.03 L88.50,37.91 L88.59,38.90 L88.76,39.95 L89.23,41.26 L90.44,43.68 L91.26,45.53 L91.69,47.11 L91.87,48.51 L91.81,49.87 L91.73,50.70 L91.74,52.47 L91.85,52.98 L91.98,53.79 L92.50,55.26 L92.96,56.18 L93.59,57.17 L94.62,58.69 L95.31,59.84 L95.83,61.06 L96.37,62.91 L96.55,64.28 L96.63,65.81 L96.59,67.22 L96.41,68.50 L96.09,70.21 L95.89,70.80 L95.71,71.34 L95.75,71.83 L95.90,72.33 L96.30,72.87 L96.73,73.23 L97.75,74.01 L98.26,74.58 L98.73,75.38 L99.41,78.30 L99.42,79.06 L99.11,79.93 L98.45,81.09 L96.26,85.06 L95.73,86.28 L95.31,87.70 L95.15,88.70 L95.09,89.61 L95.28,91.68 L95.85,93.74 L96.22,94.99 L96.59,96.20 L97.08,97.70 L97.83,99.29 L98.94,101.17 L99.72,102.20 L100.69,103.39 L102.06,104.86 L103.84,106.32 L105.50,107.37 L108.98,109.63 L109.94,110.00 L110.58,109.83 L111.14,109.50 L111.50,108.93 L111.47,108.32 L110.55,104.54 L108.81,96.72 L107.90,93.72 L107.05,91.25 L105.54,87.00 Z" stroke="#00d4ff" stroke-width="2" stroke-linecap="round" stroke-linejoin="round" fill="none"/>
</svg>