<?xml version="1.0" encoding="UTF-8"?>
<svg viewBox="0 0 200 120" xmlns="http://www.w3.org/2000/svg" fill="none" preserveAspectRatio="xMidYMid meet">
  <!-- Las Vegas Street Circuit Circuit -->
  <!-- Track glow effect -->
  <path d="M130.90,98.78 L134.38,95.62 L135.12,94.95 L135.65,94.23 L135.82,93.37 L135.37,92.60 L134.64,92.11 L133.32,91.71 L132.07,91.54 L130.86,91.60 L129.73,91.87 L127.25,93.07 L124.97,94.91 L124.09,95.38 L122.16,95.73 L121.12,95.71 L119.24,95.20 L118.20,94.73 L117.24,94.07 L115.64,92.32 L114.99,90.84 L114.55,46.94 L114.88,46.27 L115.53,45.94 L126.74,46.11 L130.10,46.09 L131.86,45.76 L132.57,45.27 L134.55,43.70 L135.44,42.69 L136.12,41.59 L136.62,40.63 L136.91,39.38 L137.12,37.90 L137.06,37.02 L136.45,36.71 L134.82,36.56 L134.26,36.27 L133.77,35.66 L133.57,34.72 L133.66,34.02 L135.24,31.83 L135.51,31.24 L136.17,30.23 L135.93,29.17 L134.65,28.49 L132.28,28.27 L114.51,27.91 L107.94,27.14 L105.77,26.29 L103.38,24.30 L101.32,20.98 L98.18,15.00 L96.16,13.28 L94.06,12.12 L91.93,11.48 L88.60,10.61 L84.82,10.00 L84.30,10.10 L83.81,10.41 L83.42,11.45 L83.03,12.17 L79.11,18.36 L76.66,22.05 L75.39,23.92 L74.09,25.72 L71.83,28.88 L69.52,33.13 L68.29,36.35 L66.94,40.04 L66.04,42.69 L65.36,45.32 L64.83,47.99 L64.25,51.90 L64.11,54.19 L63.96,56.91 L64.02,64.27 L64.06,68.48 L64.08,71.67 L63.32,88.34 L63.09,96.90 L63.09,101.17 L62.88,106.32 L63.24,106.73 L63.73,106.87 L64.90,106.85 L65.76,107.12 L67.70,108.69 L69.40,109.47 L71.66,109.83 L81.50,110.00 L94.37,109.88 L104.96,109.93 L110.14,109.87 L114.37,109.39 L118.80,108.71 L119.95,108.29 L120.88,107.81 L121.63,107.25 L130.90,98.78 Z" stroke="rgba(0, 212, 255, 0.3)" stroke-width="8" stroke-linecap="round" stroke-linejoin="round" fill="none"/>
  <!-- Main track line -->
  <path d="M130.90,98.78 L134.38,95.62 L135.12,94.95 L135.65,94.23 L135.82,93.37 L135.37,92.60 L134.64,92.11 L133.32,91.71 L132.07,91.54 L130.86,91.60 L129.73,91.87 L127.25,93.07 L124.97,94.91 L124.09,95.38 L122.16,95.73 L121.12,95.71 L119.24,95.20 L118.20,94.73 L117.24,94.07 L115.64,92.32 L114.99,90.84 L114.55,46.94 L114.88,46.27 L115.53,45.94 L126.74,46.11 L130.10,46.09 L131.86,45.76 L132.57,45.27 L134.55,43.70 L135.44,42.69 L136.12,41.59 L136.62,40.63 L136.91,39.38 L137.12,37.90 L137.06,37.02 L136.45,36.71 L134.82,36.56 L134.26,36.27 L133.77,35.66 L133.57,34.72 L133.66,34.02 L135.24,31.83 L135.51,31.24 L136.17,30.23 L135.93,29.17 L134.65,28.49 L132.28,28.27 L114.51,27.91 L107.94,27.14 L105.77,26.29 L103.38,24.30 L101.32,20.98 L98.18,15.00 L96.16,13.28 L94.06,12.12 L91.93,11.48 L88.60,10.61 L84.82,10.00 L84.30,10.10 L83.81,10.41 L83.42,11.45 L83.03,12.17 L79.11,18.36 L76.66,22.05 L75.39,23.92 L74.09,25.72 L71.83,28.88 L69.52,33.13 L68.29,36.35 L66.94,40.04 L66.04,42.69 L65.36,45.32 L64.83,47.99 L64.25,51.90 L64.11,54.19 L63.96,56.91 L64.02,64.27 L64.06,68.48 L64.08,71.67 L63.32,88.34 L63.09,96.90 L63.09,101.17 L62.88,106.32 L63.24,106.73 L63.73,106.87 L64.90,106.85 L65.76,107.12 L67.70,108.69 L69.40,109.47 L71.66,109.83 L81.50,110.00 L94.37,109.88 L104.96,109.93 L110.14,109.87 L114.37,109.39 L118.80,108.71 L119.95,108.29 L120.88,107.81 L121.63,107.25 L130.90,98.78 Z" stroke="#00d4ff" stroke-width="2" stroke-linecap="round" stroke-linejoin="round" fill="none"/>
</svg>