<?xml version="1.0" encoding="UTF-8"?>
<svg viewBox="0 0 200 120" xmlns="http://www.w3.org/2000/svg" fill="none" preserveAspectRatio="xMidYMid meet">
  <!-- Losail International Circuit Circuit -->
  <!-- Track glow effect -->
  <path d="M69.55,70.53 L57.94,51.34 L53.38,43.89 L53.08,42.50 L53.28,41.05 L53.86,39.93 L54.77,39.11 L56.17,38.37 L57.77,38.14 L59.28,38.39 L70.87,44.74 L71.98,45.02 L73.44,45.06 L75.12,44.62 L76.48,43.47 L77.25,42.22 L77.44,40.96 L77.18,31.84 L77.34,30.59 L77.76,29.53 L78.31,28.50 L79.11,27.66 L95.64,11.12 L96.55,10.45 L97.96,10.10 L99.31,10.00 L100.69,10.32 L101.77,10.90 L106.68,15.13 L107.23,16.02 L107.48,17.25 L107.42,18.32 L107.09,19.37 L106.38,20.31 L95.64,30.96 L95.17,31.73 L95.14,32.58 L95.39,33.32 L95.92,33.87 L96.69,34.31 L97.76,34.44 L98.51,34.25 L99.48,33.85 L118.24,27.07 L119.47,26.95 L120.98,27.15 L122.25,27.67 L123.25,28.57 L123.86,29.71 L124.10,30.84 L124.07,31.84 L123.71,32.79 L122.94,33.89 L122.30,34.43 L120.84,35.50 L119.22,37.19 L117.86,38.89 L116.73,40.69 L115.82,42.81 L115.30,44.25 L114.74,46.79 L114.28,47.88 L113.48,48.80 L112.62,49.37 L111.47,49.84 L100.81,52.18 L99.87,52.68 L99.16,53.25 L98.74,54.20 L98.58,55.12 L98.77,56.51 L99.92,57.88 L101.91,59.69 L104.98,61.80 L108.18,63.44 L111.43,64.49 L114.68,65.11 L117.86,65.36 L121.33,65.06 L137.27,63.46 L138.73,63.74 L140.41,64.47 L141.71,65.36 L142.92,66.85 L146.62,73.06 L146.92,74.13 L146.92,75.10 L146.75,76.11 L145.99,77.41 L140.25,85.77 L139.53,86.39 L138.46,86.84 L137.35,87.14 L135.86,87.09 L117.54,83.75 L116.23,83.75 L114.94,84.10 L113.84,84.77 L113.06,85.64 L100.31,108.03 L99.28,109.10 L98.13,109.75 L96.45,110.00 L95.17,109.87 L93.93,109.40 L92.67,108.40 L69.55,70.53 Z" stroke="rgba(0, 212, 255, 0.3)" stroke-width="8" stroke-linecap="round" stroke-linejoin="round" fill="none"/>
  <!-- Main track line -->
  <path d="M69.55,70.53 L57.94,51.34 L53.38,43.89 L53.08,42.50 L53.28,41.05 L53.86,39.93 L54.77,39.11 L56.17,38.37 L57.77,38.14 L59.28,38.39 L70.87,44.74 L71.98,45.02 L73.44,45.06 L75.12,44.62 L76.48,43.47 L77.25,42.22 L77.44,40.96 L77.18,31.84 L77.34,30.59 L77.76,29.53 L78.31,28.50 L79.11,27.66 L95.64,11.12 L96.55,10.45 L97.96,10.10 L99.31,10.00 L100.69,10.32 L101.77,10.90 L106.68,15.13 L107.23,16.02 L107.48,17.25 L107.42,18.32 L107.09,19.37 L106.38,20.31 L95.64,30.96 L95.17,31.73 L95.14,32.58 L95.39,33.32 L95.92,33.87 L96.69,34.31 L97.76,34.44 L98.51,34.25 L99.48,33.85 L118.24,27.07 L119.47,26.95 L120.98,27.15 L122.25,27.67 L123.25,28.57 L123.86,29.71 L124.10,30.84 L124.07,31.84 L123.71,32.79 L122.94,33.89 L122.30,34.43 L120.84,35.50 L119.22,37.19 L117.86,38.89 L116.73,40.69 L115.82,42.81 L115.30,44.25 L114.74,46.79 L114.28,47.88 L113.48,48.80 L112.62,49.37 L111.47,49.84 L100.81,52.18 L99.87,52.68 L99.16,53.25 L98.74,54.20 L98.58,55.12 L98.77,56.51 L99.92,57.88 L101.91,59.69 L104.98,61.80 L108.18,63.44 L111.43,64.49 L114.68,65.11 L117.86,65.36 L121.33,65.06 L137.27,63.46 L138.73,63.74 L140.41,64.47 L141.71,65.36 L142.92,66.85 L146.62,73.06 L146.92,74.13 L146.92,75.10 L146.75,76.11 L145.99,77.41 L140.25,85.77 L139.53,86.39 L138.46,86.84 L137.35,87.14 L135.86,87.09 L117.54,83.75 L116.23,83.75 L114.94,84.10 L113.84,84.77 L113.06,85.64 L100.31,108.03 L99.28,109.10 L98.13,109.75 L96.45,110.00 L95.17,109.87 L93.93,109.40 L92.67,108.40 L69.55,70.53 Z" stroke="#00d4ff" stroke-width="2" stroke-linecap="round" stroke-linejoin="round" fill="none"/>
</svg>