<?xml version="1.0" encoding="UTF-8"?>
<svg viewBox="0 0 200 120" xmlns="http://www.w3.org/2000/svg" fill="none" preserveAspectRatio="xMidYMid meet">
  <!-- Autódromo Hermanos Rodríguez Circuit -->
  <!-- Track glow effect -->
  <path d="M53.39,11.96 L89.83,16.74 L101.65,18.20 L114.10,19.26 L120.10,19.96 L135.58,22.02 L162.56,25.80 L168.12,26.86 L169.07,27.21 L169.58,27.62 L169.83,28.27 L169.90,28.87 L168.88,35.17 L169.01,35.72 L169.33,36.22 L172.17,37.67 L172.99,38.08 L173.43,38.73 L173.43,39.34 L172.86,43.27 L171.98,46.79 L170.59,50.21 L169.01,53.28 L156.63,73.11 L141.77,95.11 L140.82,96.61 L140.70,97.52 L140.89,98.28 L141.34,98.83 L145.76,101.39 L146.19,101.80 L146.26,102.45 L145.95,103.01 L145.19,103.66 L136.90,109.55 L136.08,109.90 L135.39,110.00 L134.76,109.80 L133.24,108.89 L132.99,108.29 L132.99,107.09 L136.78,79.20 L136.72,78.34 L136.34,77.54 L135.77,76.88 L134.89,76.28 L130.47,73.71 L128.89,72.35 L127.94,71.45 L126.99,69.74 L125.97,67.22 L124.97,65.71 L123.83,64.66 L122.57,63.90 L120.86,63.19 L107.20,61.23 L105.69,60.78 L104.75,60.02 L104.30,59.52 L103.92,58.81 L102.15,53.64 L101.59,52.62 L100.70,51.67 L98.49,50.41 L88.38,45.28 L85.46,44.12 L81.24,43.16 L47.36,38.53 L46.66,38.28 L46.29,37.88 L45.97,37.23 L45.91,36.37 L45.34,28.16 L44.65,22.48 L44.39,21.83 L43.89,21.37 L43.19,21.07 L42.31,21.17 L41.36,21.98 L40.15,23.69 L39.46,24.19 L38.63,24.49 L37.69,24.45 L36.62,23.99 L35.36,23.43 L34.15,23.08 L28.41,22.48 L27.46,22.18 L27.01,21.83 L26.63,21.17 L26.57,20.52 L26.94,18.96 L27.77,16.90 L28.84,15.18 L30.42,13.12 L32.26,11.71 L34.60,10.60 L36.74,10.05 L38.83,10.00 L41.86,10.35 L53.39,11.96 Z" stroke="rgba(0, 212, 255, 0.3)" stroke-width="8" stroke-linecap="round" stroke-linejoin="round" fill="none"/>
  <!-- Main track line -->
  <path d="M53.39,11.96 L89.83,16.74 L101.65,18.20 L114.10,19.26 L120.10,19.96 L135.58,22.02 L162.56,25.80 L168.12,26.86 L169.07,27.21 L169.58,27.62 L169.83,28.27 L169.90,28.87 L168.88,35.17 L169.01,35.72 L169.33,36.22 L172.17,37.67 L172.99,38.08 L173.43,38.73 L173.43,39.34 L172.86,43.27 L171.98,46.79 L170.59,50.21 L169.01,53.28 L156.63,73.11 L141.77,95.11 L140.82,96.61 L140.70,97.52 L140.89,98.28 L141.34,98.83 L145.76,101.39 L146.19,101.80 L146.26,102.45 L145.95,103.01 L145.19,103.66 L136.90,109.55 L136.08,109.90 L135.39,110.00 L134.76,109.80 L133.24,108.89 L132.99,108.29 L132.99,107.09 L136.78,79.20 L136.72,78.34 L136.34,77.54 L135.77,76.88 L134.89,76.28 L130.47,73.71 L128.89,72.35 L127.94,71.45 L126.99,69.74 L125.97,67.22 L124.97,65.71 L123.83,64.66 L122.57,63.90 L120.86,63.19 L107.20,61.23 L105.69,60.78 L104.75,60.02 L104.30,59.52 L103.92,58.81 L102.15,53.64 L101.59,52.62 L100.70,51.67 L98.49,50.41 L88.38,45.28 L85.46,44.12 L81.24,43.16 L47.36,38.53 L46.66,38.28 L46.29,37.88 L45.97,37.23 L45.91,36.37 L45.34,28.16 L44.65,22.48 L44.39,21.83 L43.89,21.37 L43.19,21.07 L42.31,21.17 L41.36,21.98 L40.15,23.69 L39.46,24.19 L38.63,24.49 L37.69,24.45 L36.62,23.99 L35.36,23.43 L34.15,23.08 L28.41,22.48 L27.46,22.18 L27.01,21.83 L26.63,21.17 L26.57,20.52 L26.94,18.96 L27.77,16.90 L28.84,15.18 L30.42,13.12 L32.26,11.71 L34.60,10.60 L36.74,10.05 L38.83,10.00 L41.86,10.35 L53.39,11.96 Z" stroke="#00d4ff" stroke-width="2" stroke-linecap="round" stroke-linejoin="round" fill="none"/>
</svg>