<?xml version="1.0" encoding="UTF-8"?>
<svg viewBox="0 0 200 120" xmlns="http://www.w3.org/2000/svg" fill="none" preserveAspectRatio="xMidYMid meet">
  <!-- Miami International Autodrome Circuit -->
  <!-- Track glow effect -->
  <path d="M98.83,45.78 L123.42,59.59 L123.84,60.61 L123.66,61.55 L122.93,62.81 L117.70,66.31 L116.07,67.89 L115.53,70.74 L116.07,73.76 L115.55,77.49 L114.29,79.88 L109.55,83.29 L104.14,84.97 L100.63,85.68 L95.45,85.79 L91.39,85.13 L86.63,83.21 L62.49,70.19 L59.03,68.31 L57.26,68.04 L55.22,67.89 L53.18,68.13 L50.59,68.86 L48.41,69.97 L46.18,71.58 L43.86,72.97 L40.81,73.43 L38.07,73.20 L35.12,71.92 L32.35,69.69 L29.83,67.45 L27.01,66.19 L24.09,65.66 L20.58,66.21 L17.36,67.12 L14.65,68.28 L12.65,69.94 L10.74,72.63 L10.00,75.48 L10.08,77.86 L10.67,79.47 L11.64,80.57 L13.62,81.54 L16.00,81.54 L18.95,80.96 L22.25,80.97 L29.04,82.26 L41.48,84.53 L54.34,84.19 L73.97,83.46 L79.40,85.01 L86.12,87.16 L91.52,88.88 L98.78,90.95 L106.33,92.09 L113.92,92.17 L121.89,91.00 L129.17,88.70 L145.79,83.24 L155.44,79.94 L160.09,78.08 L171.97,72.40 L178.37,68.72 L179.66,67.16 L179.24,65.87 L178.08,64.86 L175.14,63.27 L173.09,61.89 L171.97,59.87 L171.74,57.78 L172.39,55.22 L173.98,53.80 L175.83,53.13 L181.33,53.43 L184.08,53.09 L185.29,52.38 L187.14,50.77 L190.00,46.16 L189.81,45.16 L188.42,44.65 L187.16,43.81 L187.11,42.10 L189.39,35.50 L189.21,34.37 L188.18,33.62 L182.45,33.15 L99.72,30.51 L33.75,27.83 L31.82,28.28 L31.42,29.65 L32.08,31.35 L34.37,33.17 L37.92,35.60 L41.75,37.45 L44.86,38.16 L47.61,37.95 L50.96,36.86 L58.79,33.56 L63.18,32.50 L68.57,32.08 L73.89,32.75 L78.91,34.63 L98.83,45.78 Z" stroke="rgba(0, 212, 255, 0.3)" stroke-width="8" stroke-linecap="round" stroke-linejoin="round" fill="none"/>
  <!-- Main track line -->
  <path d="M98.83,45.78 L123.42,59.59 L123.84,60.61 L123.66,61.55 L122.93,62.81 L117.70,66.31 L116.07,67.89 L115.53,70.74 L116.07,73.76 L115.55,77.49 L114.29,79.88 L109.55,83.29 L104.14,84.97 L100.63,85.68 L95.45,85.79 L91.39,85.13 L86.63,83.21 L62.49,70.19 L59.03,68.31 L57.26,68.04 L55.22,67.89 L53.18,68.13 L50.59,68.86 L48.41,69.97 L46.18,71.58 L43.86,72.97 L40.81,73.43 L38.07,73.20 L35.12,71.92 L32.35,69.69 L29.83,67.45 L27.01,66.19 L24.09,65.66 L20.58,66.21 L17.36,67.12 L14.65,68.28 L12.65,69.94 L10.74,72.63 L10.00,75.48 L10.08,77.86 L10.67,79.47 L11.64,80.57 L13.62,81.54 L16.00,81.54 L18.95,80.96 L22.25,80.97 L29.04,82.26 L41.48,84.53 L54.34,84.19 L73.97,83.46 L79.40,85.01 L86.12,87.16 L91.52,88.88 L98.78,90.95 L106.33,92.09 L113.92,92.17 L121.89,91.00 L129.17,88.70 L145.79,83.24 L155.44,79.94 L160.09,78.08 L171.97,72.40 L178.37,68.72 L179.66,67.16 L179.24,65.87 L178.08,64.86 L175.14,63.27 L173.09,61.89 L171.97,59.87 L171.74,57.78 L172.39,55.22 L173.98,53.80 L175.83,53.13 L181.33,53.43 L184.08,53.09 L185.29,52.38 L187.14,50.77 L190.00,46.16 L189.81,45.16 L188.42,44.65 L187.16,43.81 L187.11,42.10 L189.39,35.50 L189.21,34.37 L188.18,33.62 L182.45,33.15 L99.72,30.51 L33.75,27.83 L31.82,28.28 L31.42,29.65 L32.08,31.35 L34.37,33.17 L37.92,35.60 L41.75,37.45 L44.86,38.16 L47.61,37.95 L50.96,36.86 L58.79,33.56 L63.18,32.50 L68.57,32.08 L73.89,32.75 L78.91,34.63 L98.83,45.78 Z" stroke="#00d4ff" stroke-width="2" stroke-linecap="round" stroke-linejoin="round" fill="none"/>
</svg>