<?xml version="1.0" encoding="UTF-8"?>
<svg viewBox="0 0 200 120" xmlns="http://www.w3.org/2000/svg" fill="none" preserveAspectRatio="xMidYMid meet">
  <!-- Circuit de Monaco Circuit -->
  <!-- Track glow effect -->
  <path d="M116.01,29.54 L115.78,28.51 L116.10,27.58 L116.93,26.32 L117.70,25.43 L120.13,23.21 L132.43,11.13 L133.29,10.26 L134.56,10.00 L136.10,10.32 L137.17,10.96 L137.95,11.97 L138.11,13.10 L138.15,14.03 L138.27,14.80 L138.91,15.71 L139.65,16.41 L141.04,17.82 L141.97,19.06 L142.34,19.81 L142.81,20.26 L143.55,20.41 L144.41,20.23 L145.05,19.75 L145.24,19.06 L144.82,18.48 L143.73,17.91 L140.52,14.96 L140.07,14.25 L140.05,13.56 L140.31,13.04 L140.65,12.55 L142.16,11.99 L144.49,11.55 L145.76,11.21 L147.06,10.83 L148.86,10.38 L150.83,10.27 L151.87,10.65 L152.26,11.82 L151.89,18.63 L150.44,25.63 L148.93,30.09 L147.25,33.26 L144.37,36.90 L141.06,39.97 L136.26,43.75 L129.39,46.79 L125.30,48.24 L117.42,50.90 L112.12,52.23 L104.29,53.57 L99.25,54.14 L96.58,54.50 L96.12,55.06 L96.09,55.56 L95.93,56.13 L95.58,56.69 L94.45,56.97 L92.85,57.17 L91.08,56.44 L90.11,56.39 L76.01,57.73 L69.01,58.46 L62.56,59.19 L60.78,59.38 L59.59,59.53 L58.74,60.17 L57.39,62.09 L56.24,63.95 L55.33,65.82 L54.93,67.14 L54.51,69.45 L54.47,73.40 L54.53,74.39 L54.93,75.06 L55.73,75.71 L57.50,76.65 L58.69,77.44 L59.20,78.28 L59.41,79.50 L61.42,87.91 L61.93,89.39 L62.09,89.86 L62.05,90.48 L61.53,90.99 L60.40,91.56 L59.27,91.96 L59.01,92.53 L59.23,93.73 L60.52,96.46 L61.69,98.52 L62.89,100.14 L64.95,102.26 L67.53,104.15 L69.43,104.94 L71.56,105.66 L72.62,106.00 L73.15,106.44 L73.77,107.77 L73.47,108.48 L72.51,108.89 L68.25,109.70 L65.88,109.98 L64.31,110.00 L62.92,109.85 L62.04,109.37 L61.50,108.97 L61.48,108.03 L61.27,107.28 L60.86,106.36 L58.46,104.22 L56.70,102.17 L55.33,100.64 L53.88,97.74 L50.67,89.66 L49.79,87.06 L49.17,84.27 L48.37,80.20 L47.74,74.91 L47.74,71.46 L47.95,68.82 L48.35,66.08 L49.06,64.17 L49.86,62.46 L50.25,61.41 L50.44,60.48 L50.35,59.07 L50.31,58.21 L50.70,57.69 L51.70,57.35 L54.12,56.93 L56.28,56.86 L59.24,56.60 L63.36,56.22 L67.02,55.75 L76.32,53.77 L81.52,52.74 L86.28,52.18 L89.55,51.99 L92.10,51.33 L99.47,48.80 L102.70,47.84 L107.42,47.08 L111.36,46.68 L115.12,46.22 L117.24,45.68 L119.81,44.52 L122.03,42.84 L123.29,41.42 L123.85,39.94 L123.76,38.38 L123.39,36.92 L122.59,35.31 L121.53,33.78 L119.86,32.84 L118.26,31.76 L117.49,31.26 L116.77,30.74 L116.01,29.54 Z" stroke="rgba(0, 212, 255, 0.3)" stroke-width="8" stroke-linecap="round" stroke-linejoin="round" fill="none"/>
  <!-- Main track line -->
  <path d="M116.01,29.54 L115.78,28.51 L116.10,27.58 L116.93,26.32 L117.70,25.43 L120.13,23.21 L132.43,11.13 L133.29,10.26 L134.56,10.00 L136.10,10.32 L137.17,10.96 L137.95,11.97 L138.11,13.10 L138.15,14.03 L138.27,14.80 L138.91,15.71 L139.65,16.41 L141.04,17.82 L141.97,19.06 L142.34,19.81 L142.81,20.26 L143.55,20.41 L144.41,20.23 L145.05,19.75 L145.24,19.06 L144.82,18.48 L143.73,17.91 L140.52,14.96 L140.07,14.25 L140.05,13.56 L140.31,13.04 L140.65,12.55 L142.16,11.99 L144.49,11.55 L145.76,11.21 L147.06,10.83 L148.86,10.38 L150.83,10.27 L151.87,10.65 L152.26,11.82 L151.89,18.63 L150.44,25.63 L148.93,30.09 L147.25,33.26 L144.37,36.90 L141.06,39.97 L136.26,43.75 L129.39,46.79 L125.30,48.24 L117.42,50.90 L112.12,52.23 L104.29,53.57 L99.25,54.14 L96.58,54.50 L96.12,55.06 L96.09,55.56 L95.93,56.13 L95.58,56.69 L94.45,56.97 L92.85,57.17 L91.08,56.44 L90.11,56.39 L76.01,57.73 L69.01,58.46 L62.56,59.19 L60.78,59.38 L59.59,59.53 L58.74,60.17 L57.39,62.09 L56.24,63.95 L55.33,65.82 L54.93,67.14 L54.51,69.45 L54.47,73.40 L54.53,74.39 L54.93,75.06 L55.73,75.71 L57.50,76.65 L58.69,77.44 L59.20,78.28 L59.41,79.50 L61.42,87.91 L61.93,89.39 L62.09,89.86 L62.05,90.48 L61.53,90.99 L60.40,91.56 L59.27,91.96 L59.01,92.53 L59.23,93.73 L60.52,96.46 L61.69,98.52 L62.89,100.14 L64.95,102.26 L67.53,104.15 L69.43,104.94 L71.56,105.66 L72.62,106.00 L73.15,106.44 L73.77,107.77 L73.47,108.48 L72.51,108.89 L68.25,109.70 L65.88,109.98 L64.31,110.00 L62.92,109.85 L62.04,109.37 L61.50,108.97 L61.48,108.03 L61.27,107.28 L60.86,106.36 L58.46,104.22 L56.70,102.17 L55.33,100.64 L53.88,97.74 L50.67,89.66 L49.79,87.06 L49.17,84.27 L48.37,80.20 L47.74,74.91 L47.74,71.46 L47.95,68.82 L48.35,66.08 L49.06,64.17 L49.86,62.46 L50.25,61.41 L50.44,60.48 L50.35,59.07 L50.31,58.21 L50.70,57.69 L51.70,57.35 L54.12,56.93 L56.28,56.86 L59.24,56.60 L63.36,56.22 L67.02,55.75 L76.32,53.77 L81.52,52.74 L86.28,52.18 L89.55,51.99 L92.10,51.33 L99.47,48.80 L102.70,47.84 L107.42,47.08 L111.36,46.68 L115.12,46.22 L117.24,45.68 L119.81,44.52 L122.03,42.84 L123.29,41.42 L123.85,39.94 L123.76,38.38 L123.39,36.92 L122.59,35.31 L121.53,33.78 L119.86,32.84 L118.26,31.76 L117.49,31.26 L116.77,30.74 L116.01,29.54 Z" stroke="#00d4ff" stroke-width="2" stroke-linecap="round" stroke-linejoin="round" fill="none"/>
</svg>