<?xml version="1.0" encoding="UTF-8"?>
<svg viewBox="0 0 200 120" xmlns="http://www.w3.org/2000/svg" fill="none" preserveAspectRatio="xMidYMid meet">
  <!-- Circuit Gilles-Villeneuve Circuit -->
  <!-- Track glow effect -->
  <path d="M115.65,82.41 L117.41,88.12 L118.71,92.34 L119.44,95.45 L119.54,98.02 L118.40,104.91 L118.61,105.74 L119.40,106.25 L122.32,107.16 L122.90,107.46 L123.18,108.06 L123.07,108.66 L122.66,109.26 L121.87,109.73 L120.88,110.00 L119.57,110.00 L118.13,109.78 L114.70,109.10 L112.36,108.55 L110.13,107.70 L108.00,106.72 L103.09,103.76 L100.17,101.85 L99.62,101.25 L99.49,100.76 L99.52,100.27 L100.03,99.17 L100.21,98.49 L100.10,97.94 L99.76,97.48 L94.16,92.69 L93.17,92.09 L91.28,91.16 L90.15,90.50 L88.91,89.35 L88.22,88.12 L87.74,86.87 L87.57,85.86 L87.61,78.39 L87.61,77.76 L87.23,77.27 L86.54,76.89 L85.34,76.70 L83.72,76.97 L82.80,77.05 L81.67,76.83 L80.70,76.39 L80.02,75.93 L79.40,75.36 L79.02,74.83 L78.50,73.80 L78.06,72.51 L77.55,70.92 L77.48,69.58 L76.82,63.87 L76.89,60.78 L77.00,58.29 L77.30,55.56 L77.71,53.40 L78.13,51.70 L81.01,43.55 L81.49,42.81 L82.18,42.52 L82.90,42.41 L83.96,42.35 L84.79,42.16 L85.58,41.83 L86.44,41.20 L87.09,40.46 L87.68,39.45 L90.52,31.33 L91.66,26.93 L92.03,23.84 L92.21,20.66 L92.17,19.62 L92.00,18.53 L89.90,11.31 L89.83,10.88 L89.90,10.49 L90.38,10.11 L91.31,10.00 L91.90,10.14 L92.31,10.46 L92.44,10.74 L92.69,12.35 L93.03,14.81 L93.17,15.63 L93.62,16.54 L95.12,18.70 L96.46,20.61 L103.23,32.86 L104.02,34.45 L114.04,68.08 L114.45,69.47 L114.35,69.94 L113.91,70.30 L113.11,70.51 L112.60,70.87 L112.39,71.28 L112.43,71.80 L114.25,77.62 L115.65,82.41 Z" stroke="rgba(0, 212, 255, 0.3)" stroke-width="8" stroke-linecap="round" stroke-linejoin="round" fill="none"/>
  <!-- Main track line -->
  <path d="M115.65,82.41 L117.41,88.12 L118.71,92.34 L119.44,95.45 L119.54,98.02 L118.40,104.91 L118.61,105.74 L119.40,106.25 L122.32,107.16 L122.90,107.46 L123.18,108.06 L123.07,108.66 L122.66,109.26 L121.87,109.73 L120.88,110.00 L119.57,110.00 L118.13,109.78 L114.70,109.10 L112.36,108.55 L110.13,107.70 L108.00,106.72 L103.09,103.76 L100.17,101.85 L99.62,101.25 L99.49,100.76 L99.52,100.27 L100.03,99.17 L100.21,98.49 L100.10,97.94 L99.76,97.48 L94.16,92.69 L93.17,92.09 L91.28,91.16 L90.15,90.50 L88.91,89.35 L88.22,88.12 L87.74,86.87 L87.57,85.86 L87.61,78.39 L87.61,77.76 L87.23,77.27 L86.54,76.89 L85.34,76.70 L83.72,76.97 L82.80,77.05 L81.67,76.83 L80.70,76.39 L80.02,75.93 L79.40,75.36 L79.02,74.83 L78.50,73.80 L78.06,72.51 L77.55,70.92 L77.48,69.58 L76.82,63.87 L76.89,60.78 L77.00,58.29 L77.30,55.56 L77.71,53.40 L78.13,51.70 L81.01,43.55 L81.49,42.81 L82.18,42.52 L82.90,42.41 L83.96,42.35 L84.79,42.16 L85.58,41.83 L86.44,41.20 L87.09,40.46 L87.68,39.45 L90.52,31.33 L91.66,26.93 L92.03,23.84 L92.21,20.66 L92.17,19.62 L92.00,18.53 L89.90,11.31 L89.83,10.88 L89.90,10.49 L90.38,10.11 L91.31,10.00 L91.90,10.14 L92.31,10.46 L92.44,10.74 L92.69,12.35 L93.03,14.81 L93.17,15.63 L93.62,16.54 L95.12,18.70 L96.46,20.61 L103.23,32.86 L104.02,34.45 L114.04,68.08 L114.45,69.47 L114.35,69.94 L113.91,70.30 L113.11,70.51 L112.60,70.87 L112.39,71.28 L112.43,71.80 L114.25,77.62 L115.65,82.41 Z" stroke="#00d4ff" stroke-width="2" stroke-linecap="round" stroke-linejoin="round" fill="none"/>
</svg>