<?xml version="1.0" encoding="UTF-8"?>
<svg viewBox="0 0 200 120" xmlns="http://www.w3.org/2000/svg" fill="none" preserveAspectRatio="xMidYMid meet">
  <!-- Autodromo Nazionale Monza Circuit -->
  <!-- Track glow effect -->
  <path d="M61.28,73.51 L63.68,53.74 L64.77,45.45 L64.89,45.11 L65.23,44.92 L65.65,44.87 L66.17,44.92 L66.65,44.94 L67.10,44.92 L67.41,44.75 L67.65,44.51 L67.72,44.29 L67.72,44.05 L66.01,39.53 L65.77,38.30 L65.68,37.19 L65.80,35.98 L66.44,30.08 L66.68,29.12 L66.99,28.22 L67.44,27.26 L68.05,26.22 L68.75,25.20 L69.78,24.06 L70.84,23.12 L72.27,22.06 L73.82,21.11 L75.54,20.25 L77.39,19.50 L79.49,18.77 L81.58,18.26 L83.89,17.81 L86.50,17.49 L89.17,17.32 L99.58,16.70 L112.32,16.16 L113.08,16.12 L113.48,15.97 L113.81,15.73 L114.23,14.69 L114.41,14.40 L114.72,14.20 L115.23,14.09 L116.96,13.87 L118.84,13.58 L121.51,12.97 L133.44,10.17 L134.47,10.00 L135.44,10.00 L136.38,10.12 L137.05,10.31 L137.69,10.58 L138.29,10.87 L139.05,11.45 L139.48,11.91 L139.78,12.47 L139.93,13.09 L140.45,17.05 L141.42,23.82 L141.39,24.43 L141.24,24.82 L141.00,25.15 L140.60,25.40 L139.87,25.73 L132.07,28.68 L125.73,31.17 L121.79,32.69 L119.87,33.46 L117.72,34.53 L116.17,35.35 L114.84,36.17 L107.92,40.33 L103.01,43.45 L92.63,49.82 L86.38,53.67 L85.52,54.27 L85.19,54.66 L85.13,55.04 L85.13,55.50 L85.35,56.52 L85.41,57.07 L85.41,57.87 L85.31,58.31 L85.07,58.86 L84.70,59.51 L84.10,60.17 L83.28,60.85 L82.34,61.40 L81.58,61.81 L81.19,62.13 L80.89,62.56 L80.61,63.36 L79.97,67.01 L79.31,70.90 L74.15,105.79 L73.93,107.05 L73.72,107.63 L73.30,108.23 L72.72,108.72 L72.05,109.15 L71.11,109.58 L70.08,109.85 L68.90,110.00 L67.89,109.95 L66.96,109.81 L65.86,109.51 L64.80,109.17 L64.01,108.79 L63.07,108.28 L62.01,107.48 L61.28,106.76 L60.65,105.99 L60.10,105.07 L59.58,104.05 L59.19,103.01 L59.00,102.12 L58.79,100.77 L58.76,99.41 L58.73,98.13 L58.64,95.59 L58.58,93.37 L58.64,90.95 L59.04,87.79 L60.52,77.78 L61.28,73.51 Z" stroke="rgba(0, 212, 255, 0.3)" stroke-width="8" stroke-linecap="round" stroke-linejoin="round" fill="none"/>
  <!-- Main track line -->
  <path d="M61.28,73.51 L63.68,53.74 L64.77,45.45 L64.89,45.11 L65.23,44.92 L65.65,44.87 L66.17,44.92 L66.65,44.94 L67.10,44.92 L67.41,44.75 L67.65,44.51 L67.72,44.29 L67.72,44.05 L66.01,39.53 L65.77,38.30 L65.68,37.19 L65.80,35.98 L66.44,30.08 L66.68,29.12 L66.99,28.22 L67.44,27.26 L68.05,26.22 L68.75,25.20 L69.78,24.06 L70.84,23.12 L72.27,22.06 L73.82,21.11 L75.54,20.25 L77.39,19.50 L79.49,18.77 L81.58,18.26 L83.89,17.81 L86.50,17.49 L89.17,17.32 L99.58,16.70 L112.32,16.16 L113.08,16.12 L113.48,15.97 L113.81,15.73 L114.23,14.69 L114.41,14.40 L114.72,14.20 L115.23,14.09 L116.96,13.87 L118.84,13.58 L121.51,12.97 L133.44,10.17 L134.47,10.00 L135.44,10.00 L136.38,10.12 L137.05,10.31 L137.69,10.58 L138.29,10.87 L139.05,11.45 L139.48,11.91 L139.78,12.47 L139.93,13.09 L140.45,17.05 L141.42,23.82 L141.39,24.43 L141.24,24.82 L141.00,25.15 L140.60,25.40 L139.87,25.73 L132.07,28.68 L125.73,31.17 L121.79,32.69 L119.87,33.46 L117.72,34.53 L116.17,35.35 L114.84,36.17 L107.92,40.33 L103.01,43.45 L92.63,49.82 L86.38,53.67 L85.52,54.27 L85.19,54.66 L85.13,55.04 L85.13,55.50 L85.35,56.52 L85.41,57.07 L85.41,57.87 L85.31,58.31 L85.07,58.86 L84.70,59.51 L84.10,60.17 L83.28,60.85 L82.34,61.40 L81.58,61.81 L81.19,62.13 L80.89,62.56 L80.61,63.36 L79.97,67.01 L79.31,70.90 L74.15,105.79 L73.93,107.05 L73.72,107.63 L73.30,108.23 L72.72,108.72 L72.05,109.15 L71.11,109.58 L70.08,109.85 L68.90,110.00 L67.89,109.95 L66.96,109.81 L65.86,109.51 L64.80,109.17 L64.01,108.79 L63.07,108.28 L62.01,107.48 L61.28,106.76 L60.65,105.99 L60.10,105.07 L59.58,104.05 L59.19,103.01 L59.00,102.12 L58.79,100.77 L58.76,99.41 L58.73,98.13 L58.64,95.59 L58.58,93.37 L58.64,90.95 L59.04,87.79 L60.52,77.78 L61.28,73.51 Z" stroke="#00d4ff" stroke-width="2" stroke-linecap="round" stroke-linejoin="round" fill="none"/>
</svg>