<?xml version="1.0" encoding="UTF-8"?>
<svg viewBox="0 0 200 120" xmlns="http://www.w3.org/2000/svg" fill="none" preserveAspectRatio="xMidYMid meet">
  <!-- Red Bull Ring Circuit -->
  <!-- Track glow effect -->
  <path d="M129.97,90.54 L117.57,92.78 L86.86,98.46 L84.74,98.56 L83.33,97.70 L80.95,94.57 L73.43,87.66 L65.26,79.78 L58.85,72.82 L52.99,65.96 L43.42,51.78 L40.78,48.00 L36.73,43.55 L30.50,38.37 L20.15,31.32 L10.58,24.81 L10.00,23.94 L10.07,23.02 L11.16,22.56 L13.67,22.26 L21.51,21.64 L29.35,21.44 L37.45,21.49 L45.16,22.00 L54.09,22.98 L81.40,26.56 L93.86,27.68 L120.79,28.45 L122.98,28.96 L124.33,29.98 L124.84,31.11 L124.71,32.29 L124.00,33.41 L121.31,36.03 L119.18,37.76 L115.26,40.12 L110.96,41.71 L105.75,42.88 L100.09,43.50 L94.19,43.24 L71.24,40.73 L68.16,40.99 L65.65,41.60 L63.47,42.63 L61.54,44.01 L60.32,45.65 L59.67,47.44 L59.55,49.08 L59.93,50.87 L60.64,52.19 L71.76,65.40 L73.62,66.79 L76.58,68.06 L79.98,68.58 L83.26,68.37 L86.73,67.39 L88.86,66.22 L91.04,64.38 L93.09,62.58 L95.28,61.05 L97.91,59.83 L100.99,58.59 L105.30,57.51 L109.80,56.85 L145.40,56.34 L172.78,55.89 L175.67,55.93 L178.49,56.60 L180.81,57.77 L182.67,59.36 L184.08,61.45 L189.67,74.26 L190.00,75.43 L189.67,76.30 L189.03,76.97 L186.85,78.14 L183.96,79.31 L180.23,80.60 L175.99,81.82 L170.98,82.95 L129.97,90.54 Z" stroke="rgba(0, 212, 255, 0.3)" stroke-width="8" stroke-linecap="round" stroke-linejoin="round" fill="none"/>
  <!-- Main track line -->
  <path d="M129.97,90.54 L117.57,92.78 L86.86,98.46 L84.74,98.56 L83.33,97.70 L80.95,94.57 L73.43,87.66 L65.26,79.78 L58.85,72.82 L52.99,65.96 L43.42,51.78 L40.78,48.00 L36.73,43.55 L30.50,38.37 L20.15,31.32 L10.58,24.81 L10.00,23.94 L10.07,23.02 L11.16,22.56 L13.67,22.26 L21.51,21.64 L29.35,21.44 L37.45,21.49 L45.16,22.00 L54.09,22.98 L81.40,26.56 L93.86,27.68 L120.79,28.45 L122.98,28.96 L124.33,29.98 L124.84,31.11 L124.71,32.29 L124.00,33.41 L121.31,36.03 L119.18,37.76 L115.26,40.12 L110.96,41.71 L105.75,42.88 L100.09,43.50 L94.19,43.24 L71.24,40.73 L68.16,40.99 L65.65,41.60 L63.47,42.63 L61.54,44.01 L60.32,45.65 L59.67,47.44 L59.55,49.08 L59.93,50.87 L60.64,52.19 L71.76,65.40 L73.62,66.79 L76.58,68.06 L79.98,68.58 L83.26,68.37 L86.73,67.39 L88.86,66.22 L91.04,64.38 L93.09,62.58 L95.28,61.05 L97.91,59.83 L100.99,58.59 L105.30,57.51 L109.80,56.85 L145.40,56.34 L172.78,55.89 L175.67,55.93 L178.49,56.60 L180.81,57.77 L182.67,59.36 L184.08,61.45 L189.67,74.26 L190.00,75.43 L189.67,76.30 L189.03,76.97 L186.85,78.14 L183.96,79.31 L180.23,80.60 L175.99,81.82 L170.98,82.95 L129.97,90.54 Z" stroke="#00d4ff" stroke-width="2" stroke-linecap="round" stroke-linejoin="round" fill="none"/>
</svg>