<?xml version="1.0" encoding="UTF-8"?>
<svg viewBox="0 0 200 120" xmlns="http://www.w3.org/2000/svg" fill="none" preserveAspectRatio="xMidYMid meet">
  <!-- Shanghai International Circuit Circuit -->
  <!-- Track glow effect -->
  <path d="M68.65,99.55 L58.60,101.71 L56.77,101.85 L54.56,101.85 L52.59,101.31 L51.25,100.83 L49.47,99.85 L48.18,98.87 L47.20,97.75 L46.46,96.44 L45.85,95.11 L45.79,93.70 L45.85,92.09 L46.10,90.87 L46.53,89.70 L47.32,88.67 L48.43,87.79 L50.89,86.87 L53.15,86.87 L54.92,87.45 L55.66,88.13 L56.16,88.87 L56.21,89.89 L55.84,91.35 L55.11,93.55 L54.92,94.48 L55.36,95.41 L56.39,96.38 L58.17,96.96 L60.13,96.62 L61.18,96.04 L61.85,95.07 L62.46,94.09 L63.07,92.77 L63.44,91.31 L63.57,89.64 L63.26,88.24 L62.27,86.67 L61.60,85.70 L59.58,83.60 L54.19,78.67 L50.03,74.03 L46.59,70.86 L42.30,66.71 L40.96,64.75 L40.33,63.34 L35.92,52.27 L34.52,48.94 L33.29,45.67 L33.23,44.84 L33.78,44.16 L34.89,43.76 L36.78,44.07 L38.75,45.18 L40.40,46.35 L42.05,47.86 L44.38,49.92 L46.40,52.45 L49.96,57.77 L54.74,64.95 L56.27,66.95 L57.80,68.51 L59.52,69.93 L61.54,70.86 L63.69,71.54 L65.90,71.93 L68.47,71.93 L70.73,71.54 L72.94,70.86 L75.14,69.68 L77.24,68.22 L78.88,66.56 L80.66,63.29 L83.42,58.31 L84.59,56.80 L85.81,55.78 L87.34,55.00 L89.61,54.16 L91.75,54.02 L93.60,54.16 L95.25,54.70 L96.72,55.53 L97.76,56.26 L98.68,57.14 L103.21,64.66 L104.32,65.68 L105.67,66.03 L106.95,65.83 L108.12,65.44 L112.66,60.31 L113.27,59.29 L113.27,58.36 L112.90,57.43 L101.81,41.33 L94.88,31.76 L87.28,21.03 L86.24,20.74 L85.20,20.98 L84.22,21.71 L83.06,22.83 L81.95,24.00 L80.91,24.59 L79.62,24.93 L78.27,24.73 L76.93,23.71 L75.33,22.20 L74.53,20.98 L74.05,19.86 L73.80,18.19 L73.92,16.68 L74.23,15.22 L74.78,13.85 L76.25,12.20 L77.66,11.26 L79.62,10.53 L81.71,10.14 L83.37,10.00 L85.39,10.09 L88.02,10.63 L89.73,11.26 L91.51,12.09 L93.96,14.05 L96.11,16.64 L119.40,47.09 L133.93,65.83 L141.46,75.59 L148.08,84.43 L156.84,95.60 L166.22,107.32 L166.77,108.34 L166.71,109.32 L165.91,110.00 L164.63,109.91 L161.98,108.83 L160.45,107.90 L158.74,106.83 L140.79,85.89 L139.99,85.50 L138.52,85.40 L116.02,89.94 L68.65,99.55 Z" stroke="rgba(0, 212, 255, 0.3)" stroke-width="8" stroke-linecap="round" stroke-linejoin="round" fill="none"/>
  <!-- Main track line -->
  <path d="M68.65,99.55 L58.60,101.71 L56.77,101.85 L54.56,101.85 L52.59,101.31 L51.25,100.83 L49.47,99.85 L48.18,98.87 L47.20,97.75 L46.46,96.44 L45.85,95.11 L45.79,93.70 L45.85,92.09 L46.10,90.87 L46.53,89.70 L47.32,88.67 L48.43,87.79 L50.89,86.87 L53.15,86.87 L54.92,87.45 L55.66,88.13 L56.16,88.87 L56.21,89.89 L55.84,91.35 L55.11,93.55 L54.92,94.48 L55.36,95.41 L56.39,96.38 L58.17,96.96 L60.13,96.62 L61.18,96.04 L61.85,95.07 L62.46,94.09 L63.07,92.77 L63.44,91.31 L63.57,89.64 L63.26,88.24 L62.27,86.67 L61.60,85.70 L59.58,83.60 L54.19,78.67 L50.03,74.03 L46.59,70.86 L42.30,66.71 L40.96,64.75 L40.33,63.34 L35.92,52.27 L34.52,48.94 L33.29,45.67 L33.23,44.84 L33.78,44.16 L34.89,43.76 L36.78,44.07 L38.75,45.18 L40.40,46.35 L42.05,47.86 L44.38,49.92 L46.40,52.45 L49.96,57.77 L54.74,64.95 L56.27,66.95 L57.80,68.51 L59.52,69.93 L61.54,70.86 L63.69,71.54 L65.90,71.93 L68.47,71.93 L70.73,71.54 L72.94,70.86 L75.14,69.68 L77.24,68.22 L78.88,66.56 L80.66,63.29 L83.42,58.31 L84.59,56.80 L85.81,55.78 L87.34,55.00 L89.61,54.16 L91.75,54.02 L93.60,54.16 L95.25,54.70 L96.72,55.53 L97.76,56.26 L98.68,57.14 L103.21,64.66 L104.32,65.68 L105.67,66.03 L106.95,65.83 L108.12,65.44 L112.66,60.31 L113.27,59.29 L113.27,58.36 L112.90,57.43 L101.81,41.33 L94.88,31.76 L87.28,21.03 L86.24,20.74 L85.20,20.98 L84.22,21.71 L83.06,22.83 L81.95,24.00 L80.91,24.59 L79.62,24.93 L78.27,24.73 L76.93,23.71 L75.33,22.20 L74.53,20.98 L74.05,19.86 L73.80,18.19 L73.92,16.68 L74.23,15.22 L74.78,13.85 L76.25,12.20 L77.66,11.26 L79.62,10.53 L81.71,10.14 L83.37,10.00 L85.39,10.09 L88.02,10.63 L89.73,11.26 L91.51,12.09 L93.96,14.05 L96.11,16.64 L119.40,47.09 L133.93,65.83 L141.46,75.59 L148.08,84.43 L156.84,95.60 L166.22,107.32 L166.77,108.34 L166.71,109.32 L165.91,110.00 L164.63,109.91 L161.98,108.83 L160.45,107.90 L158.74,106.83 L140.79,85.89 L139.99,85.50 L138.52,85.40 L116.02,89.94 L68.65,99.55 Z" stroke="#00d4ff" stroke-width="2" stroke-linecap="round" stroke-linejoin="round" fill="none"/>
</svg>