<?xml version="1.0" encoding="UTF-8"?>
<svg viewBox="0 0 200 120" xmlns="http://www.w3.org/2000/svg" fill="none" preserveAspectRatio="xMidYMid meet">
  <!-- Silverstone Circuit Circuit -->
  <!-- Track glow effect -->
  <path d="M109.25,10.95 L126.94,10.00 L130.08,10.12 L132.50,10.61 L134.08,11.25 L135.96,12.59 L137.15,14.12 L138.11,16.05 L139.45,19.32 L140.84,22.53 L141.64,26.07 L141.98,28.30 L142.44,33.71 L142.64,38.33 L142.94,40.13 L144.06,41.82 L146.16,44.17 L147.05,45.51 L147.01,46.52 L146.63,47.71 L143.64,52.57 L143.44,54.53 L143.90,55.93 L144.98,57.12 L147.93,59.66 L148.62,60.83 L148.70,62.20 L148.20,63.45 L146.40,64.83 L144.10,65.84 L140.95,66.97 L138.49,67.86 L136.76,68.89 L134.77,70.94 L130.86,75.46 L109.32,99.82 L102.26,106.58 L100.27,108.23 L98.66,109.11 L96.78,109.70 L94.82,110.00 L93.02,109.91 L91.02,109.63 L89.33,109.18 L87.84,108.44 L86.57,107.28 L86.18,106.82 L84.26,104.26 L82.12,101.96 L79.82,100.07 L78.24,98.91 L76.48,97.71 L73.36,95.76 L66.42,90.65 L65.73,90.38 L64.77,90.32 L63.81,90.59 L60.90,92.21 L59.90,92.43 L58.90,92.36 L58.06,92.15 L56.86,91.45 L55.60,90.65 L54.02,89.37 L52.88,87.99 L52.07,86.59 L51.38,85.00 L51.30,84.36 L51.49,83.71 L52.07,83.11 L53.45,81.76 L74.64,64.77 L79.39,61.01 L80.39,60.30 L82.12,59.60 L84.19,59.30 L85.88,59.26 L88.22,59.39 L94.74,60.00 L96.89,60.15 L99.12,60.21 L101.65,60.00 L103.96,59.63 L106.02,58.93 L119.54,52.33 L120.42,51.96 L121.49,51.63 L122.60,51.56 L123.45,51.75 L124.22,52.18 L124.68,52.66 L126.98,57.62 L127.67,58.32 L128.63,58.75 L129.74,58.78 L130.97,58.44 L131.74,57.83 L132.24,57.19 L133.20,55.57 L133.96,54.19 L134.54,52.85 L134.84,51.54 L135.04,50.15 L134.88,48.72 L134.42,48.08 L133.24,47.26 L89.44,22.68 L88.26,22.22 L86.60,21.70 L84.57,21.52 L82.46,21.67 L80.32,22.31 L79.54,22.90 L79.01,23.75 L78.12,28.21 L77.62,29.13 L76.55,29.87 L74.94,30.35 L73.18,30.51 L71.22,30.20 L69.84,29.62 L68.99,28.95 L68.34,28.15 L68.22,27.30 L68.50,26.38 L69.56,24.88 L75.21,18.01 L77.01,16.69 L78.78,15.59 L81.31,14.25 L83.38,13.36 L85.99,12.68 L88.26,12.23 L93.06,11.86 L109.25,10.95 Z" stroke="rgba(0, 212, 255, 0.3)" stroke-width="8" stroke-linecap="round" stroke-linejoin="round" fill="none"/>
  <!-- Main track line -->
  <path d="M109.25,10.95 L126.94,10.00 L130.08,10.12 L132.50,10.61 L134.08,11.25 L135.96,12.59 L137.15,14.12 L138.11,16.05 L139.45,19.32 L140.84,22.53 L141.64,26.07 L141.98,28.30 L142.44,33.71 L142.64,38.33 L142.94,40.13 L144.06,41.82 L146.16,44.17 L147.05,45.51 L147.01,46.52 L146.63,47.71 L143.64,52.57 L143.44,54.53 L143.90,55.93 L144.98,57.12 L147.93,59.66 L148.62,60.83 L148.70,62.20 L148.20,63.45 L146.40,64.83 L144.10,65.84 L140.95,66.97 L138.49,67.86 L136.76,68.89 L134.77,70.94 L130.86,75.46 L109.32,99.82 L102.26,106.58 L100.27,108.23 L98.66,109.11 L96.78,109.70 L94.82,110.00 L93.02,109.91 L91.02,109.63 L89.33,109.18 L87.84,108.44 L86.57,107.28 L86.18,106.82 L84.26,104.26 L82.12,101.96 L79.82,100.07 L78.24,98.91 L76.48,97.71 L73.36,95.76 L66.42,90.65 L65.73,90.38 L64.77,90.32 L63.81,90.59 L60.90,92.21 L59.90,92.43 L58.90,92.36 L58.06,92.15 L56.86,91.45 L55.60,90.65 L54.02,89.37 L52.88,87.99 L52.07,86.59 L51.38,85.00 L51.30,84.36 L51.49,83.71 L52.07,83.11 L53.45,81.76 L74.64,64.77 L79.39,61.01 L80.39,60.30 L82.12,59.60 L84.19,59.30 L85.88,59.26 L88.22,59.39 L94.74,60.00 L96.89,60.15 L99.12,60.21 L101.65,60.00 L103.96,59.63 L106.02,58.93 L119.54,52.33 L120.42,51.96 L121.49,51.63 L122.60,51.56 L123.45,51.75 L124.22,52.18 L124.68,52.66 L126.98,57.62 L127.67,58.32 L128.63,58.75 L129.74,58.78 L130.97,58.44 L131.74,57.83 L132.24,57.19 L133.20,55.57 L133.96,54.19 L134.54,52.85 L134.84,51.54 L135.04,50.15 L134.88,48.72 L134.42,48.08 L133.24,47.26 L89.44,22.68 L88.26,22.22 L86.60,21.70 L84.57,21.52 L82.46,21.67 L80.32,22.31 L79.54,22.90 L79.01,23.75 L78.12,28.21 L77.62,29.13 L76.55,29.87 L74.94,30.35 L73.18,30.51 L71.22,30.20 L69.84,29.62 L68.99,28.95 L68.34,28.15 L68.22,27.30 L68.50,26.38 L69.56,24.88 L75.21,18.01 L77.01,16.69 L78.78,15.59 L81.31,14.25 L83.38,13.36 L85.99,12.68 L88.26,12.23 L93.06,11.86 L109.25,10.95 Z" stroke="#00d4ff" stroke-width="2" stroke-linecap="round" stroke-linejoin="round" fill="none"/>
</svg>