<?xml version="1.0" encoding="UTF-8"?>
<svg viewBox="0 0 200 120" xmlns="http://www.w3.org/2000/svg" fill="none" preserveAspectRatio="xMidYMid meet">
  <!-- Marina Bay Street Circuit Circuit -->
  <!-- Track glow effect -->
  <path d="M173.80,48.05 L176.88,71.51 L177.18,74.55 L176.88,76.05 L176.05,77.36 L172.24,83.17 L171.56,84.11 L170.84,84.46 L169.93,84.57 L167.84,84.46 L158.20,83.93 L143.35,82.35 L141.46,81.86 L140.27,81.14 L139.34,80.12 L138.56,78.08 L138.45,76.06 L138.51,74.86 L138.13,74.24 L136.05,74.09 L133.90,74.05 L122.94,73.42 L92.09,71.78 L88.36,71.33 L85.74,70.63 L83.06,69.29 L72.11,59.68 L67.43,55.69 L66.65,55.06 L65.53,54.88 L64.14,55.13 L63.10,55.83 L62.41,56.50 L60.43,62.53 L59.39,67.04 L56.77,80.69 L51.39,108.18 L51.09,108.75 L50.69,109.26 L49.95,109.80 L49.06,110.00 L47.97,109.98 L47.46,109.77 L46.20,108.18 L44.94,106.39 L44.01,104.36 L43.00,103.36 L38.25,99.56 L35.88,97.38 L34.41,95.95 L33.49,94.66 L32.57,91.53 L32.70,90.07 L32.97,88.95 L33.61,87.66 L33.28,86.84 L32.08,86.43 L29.87,85.68 L27.97,84.46 L25.65,82.83 L23.84,81.25 L23.20,79.91 L22.90,78.04 L22.82,76.40 L24.65,73.29 L32.01,60.13 L41.47,43.12 L43.15,40.05 L44.73,38.60 L45.37,38.07 L47.53,37.64 L49.44,38.81 L51.85,40.49 L61.78,50.90 L62.67,51.35 L63.40,51.17 L64.08,49.88 L67.99,42.22 L73.23,33.36 L74.19,31.94 L75.11,31.60 L76.78,32.34 L77.74,32.91 L105.58,49.01 L110.13,50.75 L113.28,51.34 L152.55,53.66 L154.07,53.36 L156.05,52.43 L157.69,51.28 L158.73,49.37 L158.99,47.56 L158.69,43.25 L157.57,37.40 L154.16,27.94 L153.23,25.92 L152.61,24.26 L152.27,22.22 L152.27,19.60 L152.85,13.78 L153.85,11.49 L155.21,10.11 L156.37,10.00 L157.41,10.28 L158.56,11.61 L159.19,12.42 L159.79,13.25 L160.87,14.16 L163.35,15.39 L165.44,15.96 L168.05,15.71 L169.40,16.25 L170.08,17.21 L170.48,18.75 L171.53,31.66 L173.80,48.05 Z" stroke="rgba(0, 212, 255, 0.3)" stroke-width="8" stroke-linecap="round" stroke-linejoin="round" fill="none"/>
  <!-- Main track line -->
  <path d="M173.80,48.05 L176.88,71.51 L177.18,74.55 L176.88,76.05 L176.05,77.36 L172.24,83.17 L171.56,84.11 L170.84,84.46 L169.93,84.57 L167.84,84.46 L158.20,83.93 L143.35,82.35 L141.46,81.86 L140.27,81.14 L139.34,80.12 L138.56,78.08 L138.45,76.06 L138.51,74.86 L138.13,74.24 L136.05,74.09 L133.90,74.05 L122.94,73.42 L92.09,71.78 L88.36,71.33 L85.74,70.63 L83.06,69.29 L72.11,59.68 L67.43,55.69 L66.65,55.06 L65.53,54.88 L64.14,55.13 L63.10,55.83 L62.41,56.50 L60.43,62.53 L59.39,67.04 L56.77,80.69 L51.39,108.18 L51.09,108.75 L50.69,109.26 L49.95,109.80 L49.06,110.00 L47.97,109.98 L47.46,109.77 L46.20,108.18 L44.94,106.39 L44.01,104.36 L43.00,103.36 L38.25,99.56 L35.88,97.38 L34.41,95.95 L33.49,94.66 L32.57,91.53 L32.70,90.07 L32.97,88.95 L33.61,87.66 L33.28,86.84 L32.08,86.43 L29.87,85.68 L27.97,84.46 L25.65,82.83 L23.84,81.25 L23.20,79.91 L22.90,78.04 L22.82,76.40 L24.65,73.29 L32.01,60.13 L41.47,43.12 L43.15,40.05 L44.73,38.60 L45.37,38.07 L47.53,37.64 L49.44,38.81 L51.85,40.49 L61.78,50.90 L62.67,51.35 L63.40,51.17 L64.08,49.88 L67.99,42.22 L73.23,33.36 L74.19,31.94 L75.11,31.60 L76.78,32.34 L77.74,32.91 L105.58,49.01 L110.13,50.75 L113.28,51.34 L152.55,53.66 L154.07,53.36 L156.05,52.43 L157.69,51.28 L158.73,49.37 L158.99,47.56 L158.69,43.25 L157.57,37.40 L154.16,27.94 L153.23,25.92 L152.61,24.26 L152.27,22.22 L152.27,19.60 L152.85,13.78 L153.85,11.49 L155.21,10.11 L156.37,10.00 L157.41,10.28 L158.56,11.61 L159.19,12.42 L159.79,13.25 L160.87,14.16 L163.35,15.39 L165.44,15.96 L168.05,15.71 L169.40,16.25 L170.08,17.21 L170.48,18.75 L171.53,31.66 L173.80,48.05 Z" stroke="#00d4ff" stroke-width="2" stroke-linecap="round" stroke-linejoin="round" fill="none"/>
</svg>