<?xml version="1.0" encoding="UTF-8"?>
<svg viewBox="0 0 200 120" xmlns="http://www.w3.org/2000/svg" fill="none" preserveAspectRatio="xMidYMid meet">
  <!-- Circuit de Spa-Francorchamps Circuit -->
  <!-- Track glow effect -->
  <path d="M80.79,20.60 L72.16,10.99 L72.06,10.56 L72.45,10.18 L73.25,10.00 L74.14,10.16 L76.98,11.07 L83.88,13.18 L87.19,14.48 L90.65,16.11 L93.74,17.76 L96.20,19.46 L109.39,29.48 L110.31,30.04 L111.90,30.67 L114.75,31.84 L115.99,32.63 L117.05,33.70 L117.72,34.67 L118.17,35.76 L118.55,37.77 L118.77,38.48 L119.15,39.14 L119.89,40.00 L126.40,46.64 L130.55,50.86 L131.70,52.43 L132.43,53.61 L133.30,55.49 L138.50,67.06 L146.49,84.63 L148.34,88.85 L148.43,89.54 L148.24,90.30 L147.60,90.91 L146.67,91.42 L145.49,91.82 L144.79,92.25 L144.31,92.76 L143.93,93.53 L143.99,94.29 L145.59,98.84 L145.56,99.63 L145.30,100.34 L144.44,101.13 L143.42,101.66 L125.22,109.67 L124.07,109.98 L122.92,110.00 L121.71,109.77 L120.72,109.31 L120.02,108.66 L119.73,107.99 L119.67,107.28 L120.02,106.62 L120.65,105.93 L121.58,105.45 L129.53,102.32 L130.40,101.76 L130.87,101.20 L131.06,100.54 L130.97,99.73 L127.68,93.58 L126.66,91.06 L124.33,83.30 L123.18,78.85 L122.92,78.09 L122.35,77.28 L121.58,76.62 L120.43,75.90 L119.15,75.37 L117.75,75.01 L116.28,74.86 L111.52,74.66 L109.70,74.79 L108.04,75.09 L106.35,75.55 L104.98,76.14 L103.38,77.07 L102.36,78.01 L101.25,79.36 L96.74,86.54 L92.72,92.92 L91.86,93.91 L90.84,94.59 L89.43,95.10 L88.03,95.36 L86.72,95.38 L85.41,95.20 L84.29,94.88 L82.44,94.11 L81.22,93.78 L79.76,93.63 L78.29,93.73 L76.95,94.01 L75.80,94.52 L75.06,95.10 L74.17,95.89 L66.79,103.26 L66.06,103.69 L65.17,104.00 L64.08,104.15 L62.87,104.10 L61.82,103.80 L56.83,101.48 L53.90,100.11 L53.16,99.50 L52.40,98.76 L51.95,98.05 L51.63,97.21 L51.57,96.35 L51.79,95.31 L52.30,94.42 L52.97,93.27 L53.96,91.54 L55.68,89.58 L57.57,87.88 L60.44,85.82 L65.23,82.85 L68.04,81.45 L70.44,80.56 L82.76,76.47 L84.55,75.75 L86.24,74.91 L87.80,73.97 L89.14,72.95 L90.39,71.89 L92.05,69.93 L93.39,68.05 L96.46,63.70 L97.00,62.76 L97.32,61.74 L97.38,60.47 L97.06,59.33 L95.24,56.35 L93.26,53.07 L90.87,48.98 L90.26,47.46 L89.69,45.65 L89.34,43.97 L89.11,42.55 L88.41,35.96 L88.54,35.53 L88.95,35.22 L89.59,35.12 L90.67,35.22 L91.80,35.22 L92.56,35.12 L93.07,34.76 L93.20,34.36 L92.88,33.83 L88.95,29.73 L80.79,20.60 Z" stroke="rgba(0, 212, 255, 0.3)" stroke-width="8" stroke-linecap="round" stroke-linejoin="round" fill="none"/>
  <!-- Main track line -->
  <path d="M80.79,20.60 L72.16,10.99 L72.06,10.56 L72.45,10.18 L73.25,10.00 L74.14,10.16 L76.98,11.07 L83.88,13.18 L87.19,14.48 L90.65,16.11 L93.74,17.76 L96.20,19.46 L109.39,29.48 L110.31,30.04 L111.90,30.67 L114.75,31.84 L115.99,32.63 L117.05,33.70 L117.72,34.67 L118.17,35.76 L118.55,37.77 L118.77,38.48 L119.15,39.14 L119.89,40.00 L126.40,46.64 L130.55,50.86 L131.70,52.43 L132.43,53.61 L133.30,55.49 L138.50,67.06 L146.49,84.63 L148.34,88.85 L148.43,89.54 L148.24,90.30 L147.60,90.91 L146.67,91.42 L145.49,91.82 L144.79,92.25 L144.31,92.76 L143.93,93.53 L143.99,94.29 L145.59,98.84 L145.56,99.63 L145.30,100.34 L144.44,101.13 L143.42,101.66 L125.22,109.67 L124.07,109.98 L122.92,110.00 L121.71,109.77 L120.72,109.31 L120.02,108.66 L119.73,107.99 L119.67,107.28 L120.02,106.62 L120.65,105.93 L121.58,105.45 L129.53,102.32 L130.40,101.76 L130.87,101.20 L131.06,100.54 L130.97,99.73 L127.68,93.58 L126.66,91.06 L124.33,83.30 L123.18,78.85 L122.92,78.09 L122.35,77.28 L121.58,76.62 L120.43,75.90 L119.15,75.37 L117.75,75.01 L116.28,74.86 L111.52,74.66 L109.70,74.79 L108.04,75.09 L106.35,75.55 L104.98,76.14 L103.38,77.07 L102.36,78.01 L101.25,79.36 L96.74,86.54 L92.72,92.92 L91.86,93.91 L90.84,94.59 L89.43,95.10 L88.03,95.36 L86.72,95.38 L85.41,95.20 L84.29,94.88 L82.44,94.11 L81.22,93.78 L79.76,93.63 L78.29,93.73 L76.95,94.01 L75.80,94.52 L75.06,95.10 L74.17,95.89 L66.79,103.26 L66.06,103.69 L65.17,104.00 L64.08,104.15 L62.87,104.10 L61.82,103.80 L56.83,101.48 L53.90,100.11 L53.16,99.50 L52.40,98.76 L51.95,98.05 L51.63,97.21 L51.57,96.35 L51.79,95.31 L52.30,94.42 L52.97,93.27 L53.96,91.54 L55.68,89.58 L57.57,87.88 L60.44,85.82 L65.23,82.85 L68.04,81.45 L70.44,80.56 L82.76,76.47 L84.55,75.75 L86.24,74.91 L87.80,73.97 L89.14,72.95 L90.39,71.89 L92.05,69.93 L93.39,68.05 L96.46,63.70 L97.00,62.76 L97.32,61.74 L97.38,60.47 L97.06,59.33 L95.24,56.35 L93.26,53.07 L90.87,48.98 L90.26,47.46 L89.69,45.65 L89.34,43.97 L89.11,42.55 L88.41,35.96 L88.54,35.53 L88.95,35.22 L89.59,35.12 L90.67,35.22 L91.80,35.22 L92.56,35.12 L93.07,34.76 L93.20,34.36 L92.88,33.83 L88.95,29.73 L80.79,20.60 Z" stroke="#00d4ff" stroke-width="2" stroke-linecap="round" stroke-linejoin="round" fill="none"/>
</svg>