<?xml version="1.0" encoding="UTF-8"?>
<svg viewBox="0 0 200 120" xmlns="http://www.w3.org/2000/svg" fill="none" preserveAspectRatio="xMidYMid meet">
  <!-- Suzuka International Racing Course Circuit -->
  <!-- Track glow effect -->
  <path d="M163.71,62.69 L174.82,73.66 L187.81,86.72 L189.00,88.10 L189.66,89.54 L190.00,90.84 L189.97,92.12 L189.78,93.10 L188.27,96.94 L187.55,97.94 L186.50,98.71 L185.62,99.12 L184.04,99.44 L182.60,99.39 L181.01,98.96 L179.54,98.00 L178.04,96.14 L170.38,86.49 L168.93,85.48 L167.68,85.15 L165.80,84.88 L161.84,84.86 L159.84,84.39 L158.44,83.57 L157.37,82.51 L156.87,81.47 L155.09,75.91 L154.34,74.49 L153.15,73.27 L151.77,72.44 L150.03,71.77 L148.25,71.49 L143.64,71.43 L141.51,71.10 L140.05,70.53 L138.55,69.57 L137.44,68.24 L136.76,66.88 L136.45,65.60 L136.47,64.38 L136.76,63.34 L139.02,58.27 L139.36,57.24 L139.42,55.88 L139.18,54.98 L138.58,53.69 L137.69,52.58 L135.99,51.59 L133.92,50.67 L131.47,49.66 L129.31,48.95 L127.70,48.58 L125.44,48.27 L122.88,48.23 L120.86,48.30 L119.18,48.67 L117.81,49.15 L115.69,49.89 L113.45,50.92 L110.88,52.65 L108.87,54.40 L100.42,62.81 L99.98,63.29 L98.63,63.55 L86.29,64.46 L85.50,64.38 L84.65,63.91 L84.31,63.12 L84.16,62.45 L82.28,56.11 L79.78,44.22 L79.30,42.04 L79.18,40.93 L79.32,39.79 L79.58,38.61 L80.15,37.39 L80.80,36.17 L82.79,32.42 L83.00,31.85 L82.85,31.32 L82.47,30.83 L81.83,30.47 L81.08,30.28 L80.36,30.32 L79.54,30.77 L78.86,31.58 L75.96,35.70 L73.60,38.80 L72.05,40.65 L70.78,41.86 L69.68,42.63 L67.80,43.85 L65.82,44.73 L63.74,45.24 L60.12,45.67 L56.70,45.79 L54.12,45.63 L51.04,45.08 L47.68,44.30 L43.91,43.14 L41.53,42.24 L39.44,41.21 L37.52,40.03 L35.48,38.53 L33.38,36.62 L31.99,34.95 L30.74,33.13 L27.66,26.39 L26.01,23.45 L25.17,22.26 L24.04,21.39 L22.54,20.84 L20.76,20.56 L18.63,20.61 L16.65,20.84 L14.71,21.19 L12.83,21.83 L11.29,22.79 L10.36,24.02 L10.00,25.21 L10.11,26.72 L10.53,27.84 L11.14,28.97 L12.19,29.92 L14.25,31.51 L16.84,33.28 L19.37,35.09 L22.58,37.09 L26.25,39.14 L30.00,41.07 L34.19,42.71 L37.95,44.28 L41.80,45.49 L48.05,47.26 L54.94,49.46 L63.27,51.86 L71.54,54.00 L77.26,55.63 L84.65,57.95 L86.34,58.30 L88.02,58.34 L89.81,58.07 L91.54,57.67 L94.67,56.68 L97.54,55.50 L99.95,54.28 L102.45,52.69 L107.11,49.10 L113.50,44.21 L115.27,43.01 L116.54,42.28 L117.70,41.65 L118.52,41.25 L118.96,41.22 L119.55,41.42 L120.99,42.47 L122.02,43.18 L122.87,43.39 L123.67,43.26 L124.60,42.75 L126.14,41.60 L127.88,40.58 L129.81,39.91 L132.17,39.74 L134.38,39.84 L136.71,40.24 L139.03,40.98 L141.01,41.76 L143.49,43.14 L145.72,44.84 L148.00,46.94 L163.71,62.69 Z" stroke="rgba(0, 212, 255, 0.3)" stroke-width="8" stroke-linecap="round" stroke-linejoin="round" fill="none"/>
  <!-- Main track line -->
  <path d="M163.71,62.69 L174.82,73.66 L187.81,86.72 L189.00,88.10 L189.66,89.54 L190.00,90.84 L189.97,92.12 L189.78,93.10 L188.27,96.94 L187.55,97.94 L186.50,98.71 L185.62,99.12 L184.04,99.44 L182.60,99.39 L181.01,98.96 L179.54,98.00 L178.04,96.14 L170.38,86.49 L168.93,85.48 L167.68,85.15 L165.80,84.88 L161.84,84.86 L159.84,84.39 L158.44,83.57 L157.37,82.51 L156.87,81.47 L155.09,75.91 L154.34,74.49 L153.15,73.27 L151.77,72.44 L150.03,71.77 L148.25,71.49 L143.64,71.43 L141.51,71.10 L140.05,70.53 L138.55,69.57 L137.44,68.24 L136.76,66.88 L136.45,65.60 L136.47,64.38 L136.76,63.34 L139.02,58.27 L139.36,57.24 L139.42,55.88 L139.18,54.98 L138.58,53.69 L137.69,52.58 L135.99,51.59 L133.92,50.67 L131.47,49.66 L129.31,48.95 L127.70,48.58 L125.44,48.27 L122.88,48.23 L120.86,48.30 L119.18,48.67 L117.81,49.15 L115.69,49.89 L113.45,50.92 L110.88,52.65 L108.87,54.40 L100.42,62.81 L99.98,63.29 L98.63,63.55 L86.29,64.46 L85.50,64.38 L84.65,63.91 L84.31,63.12 L84.16,62.45 L82.28,56.11 L79.78,44.22 L79.30,42.04 L79.18,40.93 L79.32,39.79 L79.58,38.61 L80.15,37.39 L80.80,36.17 L82.79,32.42 L83.00,31.85 L82.85,31.32 L82.47,30.83 L81.83,30.47 L81.08,30.28 L80.36,30.32 L79.54,30.77 L78.86,31.58 L75.96,35.70 L73.60,38.80 L72.05,40.65 L70.78,41.86 L69.68,42.63 L67.80,43.85 L65.82,44.73 L63.74,45.24 L60.12,45.67 L56.70,45.79 L54.12,45.63 L51.04,45.08 L47.68,44.30 L43.91,43.14 L41.53,42.24 L39.44,41.21 L37.52,40.03 L35.48,38.53 L33.38,36.62 L31.99,34.95 L30.74,33.13 L27.66,26.39 L26.01,23.45 L25.17,22.26 L24.04,21.39 L22.54,20.84 L20.76,20.56 L18.63,20.61 L16.65,20.84 L14.71,21.19 L12.83,21.83 L11.29,22.79 L10.36,24.02 L10.00,25.21 L10.11,26.72 L10.53,27.84 L11.14,28.97 L12.19,29.92 L14.25,31.51 L16.84,33.28 L19.37,35.09 L22.58,37.09 L26.25,39.14 L30.00,41.07 L34.19,42.71 L37.95,44.28 L41.80,45.49 L48.05,47.26 L54.94,49.46 L63.27,51.86 L71.54,54.00 L77.26,55.63 L84.65,57.95 L86.34,58.30 L88.02,58.34 L89.81,58.07 L91.54,57.67 L94.67,56.68 L97.54,55.50 L99.95,54.28 L102.45,52.69 L107.11,49.10 L113.50,44.21 L115.27,43.01 L116.54,42.28 L117.70,41.65 L118.52,41.25 L118.96,41.22 L119.55,41.42 L120.99,42.47 L122.02,43.18 L122.87,43.39 L123.67,43.26 L124.60,42.75 L126.14,41.60 L127.88,40.58 L129.81,39.91 L132.17,39.74 L134.38,39.84 L136.71,40.24 L139.03,40.98 L141.01,41.76 L143.49,43.14 L145.72,44.84 L148.00,46.94 L163.71,62.69 Z" stroke="#00d4ff" stroke-width="2" stroke-linecap="round" stroke-linejoin="round" fill="none"/>
</svg>