<?xml version="1.0" encoding="UTF-8"?>
<svg viewBox="0 0 200 120" xmlns="http://www.w3.org/2000/svg" fill="none" preserveAspectRatio="xMidYMid meet">
  <!-- Yas Marina Circuit Circuit -->
  <!-- Track glow effect -->
  <path d="M99.36,66.02 L114.64,64.14 L115.45,63.89 L116.06,63.32 L116.48,62.52 L116.55,61.74 L116.33,60.91 L113.88,51.45 L113.46,50.41 L112.89,49.65 L111.93,48.92 L111.13,48.56 L106.80,47.33 L105.36,46.67 L104.29,46.00 L103.32,45.17 L102.59,44.39 L102.05,43.74 L101.39,42.30 L101.15,41.21 L101.13,40.03 L101.39,38.62 L101.89,37.14 L102.96,33.38 L103.34,30.59 L103.38,28.61 L103.19,26.89 L101.99,18.06 L101.20,12.49 L101.05,11.85 L100.90,11.32 L100.44,10.79 L99.66,10.20 L99.19,10.05 L98.64,10.00 L98.13,10.08 L97.57,10.28 L97.16,10.66 L96.91,11.01 L96.59,11.61 L95.64,14.18 L94.74,17.90 L87.09,38.64 L84.11,46.67 L82.46,51.15 L81.22,54.62 L79.93,58.93 L77.20,66.88 L74.60,74.03 L74.29,74.73 L74.22,75.25 L74.29,75.55 L74.58,75.86 L75.24,75.87 L77.68,75.61 L78.21,75.61 L78.64,76.08 L80.03,80.86 L80.31,81.76 L81.18,83.74 L81.98,85.16 L83.69,87.42 L85.64,89.49 L88.09,91.41 L98.49,98.88 L100.86,100.63 L102.72,101.84 L105.22,103.31 L107.35,104.43 L110.81,105.95 L113.96,107.24 L118.66,109.26 L120.66,109.99 L121.79,110.00 L122.99,109.78 L124.08,109.21 L124.66,108.70 L125.05,108.19 L125.44,107.45 L125.66,106.73 L125.78,106.06 L125.68,104.95 L125.44,104.14 L125.09,103.36 L124.58,102.66 L123.85,102.03 L122.96,101.48 L122.01,101.10 L120.63,100.92 L109.68,100.12 L108.33,99.95 L107.75,99.84 L107.13,99.64 L101.25,96.29 L100.66,95.89 L100.26,95.42 L99.83,94.43 L98.46,88.60 L98.55,88.14 L98.87,87.83 L99.35,87.71 L104.23,87.04 L104.80,86.82 L105.17,86.65 L105.56,86.29 L105.95,85.62 L106.04,84.80 L106.05,80.77 L105.69,80.08 L105.26,79.66 L104.59,79.43 L103.68,79.25 L102.89,79.15 L101.83,79.12 L100.78,79.19 L90.59,80.62 L89.72,80.68 L88.60,80.64 L87.51,80.46 L86.76,80.24 L86.26,79.83 L85.75,79.32 L82.95,74.70 L81.50,72.58 L81.20,71.95 L80.99,71.12 L80.92,70.41 L80.90,69.55 L81.06,68.97 L81.43,68.55 L81.90,68.34 L82.96,68.17 L99.36,66.02 Z" stroke="rgba(0, 212, 255, 0.3)" stroke-width="8" stroke-linecap="round" stroke-linejoin="round" fill="none"/>
  <!-- Main track line -->
  <path d="M99.36,66.02 L114.64,64.14 L115.45,63.89 L116.06,63.32 L116.48,62.52 L116.55,61.74 L116.33,60.91 L113.88,51.45 L113.46,50.41 L112.89,49.65 L111.93,48.92 L111.13,48.56 L106.80,47.33 L105.36,46.67 L104.29,46.00 L103.32,45.17 L102.59,44.39 L102.05,43.74 L101.39,42.30 L101.15,41.21 L101.13,40.03 L101.39,38.62 L101.89,37.14 L102.96,33.38 L103.34,30.59 L103.38,28.61 L103.19,26.89 L101.99,18.06 L101.20,12.49 L101.05,11.85 L100.90,11.32 L100.44,10.79 L99.66,10.20 L99.19,10.05 L98.64,10.00 L98.13,10.08 L97.57,10.28 L97.16,10.66 L96.91,11.01 L96.59,11.61 L95.64,14.18 L94.74,17.90 L87.09,38.64 L84.11,46.67 L82.46,51.15 L81.22,54.62 L79.93,58.93 L77.20,66.88 L74.60,74.03 L74.29,74.73 L74.22,75.25 L74.29,75.55 L74.58,75.86 L75.24,75.87 L77.68,75.61 L78.21,75.61 L78.64,76.08 L80.03,80.86 L80.31,81.76 L81.18,83.74 L81.98,85.16 L83.69,87.42 L85.64,89.49 L88.09,91.41 L98.49,98.88 L100.86,100.63 L102.72,101.84 L105.22,103.31 L107.35,104.43 L110.81,105.95 L113.96,107.24 L118.66,109.26 L120.66,109.99 L121.79,110.00 L122.99,109.78 L124.08,109.21 L124.66,108.70 L125.05,108.19 L125.44,107.45 L125.66,106.73 L125.78,106.06 L125.68,104.95 L125.44,104.14 L125.09,103.36 L124.58,102.66 L123.85,102.03 L122.96,101.48 L122.01,101.10 L120.63,100.92 L109.68,100.12 L108.33,99.95 L107.75,99.84 L107.13,99.64 L101.25,96.29 L100.66,95.89 L100.26,95.42 L99.83,94.43 L98.46,88.60 L98.55,88.14 L98.87,87.83 L99.35,87.71 L104.23,87.04 L104.80,86.82 L105.17,86.65 L105.56,86.29 L105.95,85.62 L106.04,84.80 L106.05,80.77 L105.69,80.08 L105.26,79.66 L104.59,79.43 L103.68,79.25 L102.89,79.15 L101.83,79.12 L100.78,79.19 L90.59,80.62 L89.72,80.68 L88.60,80.64 L87.51,80.46 L86.76,80.24 L86.26,79.83 L85.75,79.32 L82.95,74.70 L81.50,72.58 L81.20,71.95 L80.99,71.12 L80.92,70.41 L80.90,69.55 L81.06,68.97 L81.43,68.55 L81.90,68.34 L82.96,68.17 L99.36,66.02 Z" stroke="#00d4ff" stroke-width="2" stroke-linecap="round" stroke-linejoin="round" fill="none"/>
</svg>