<?xml version="1.0" encoding="UTF-8"?>
<svg viewBox="0 0 200 120" xmlns="http://www.w3.org/2000/svg" fill="none" preserveAspectRatio="xMidYMid meet">
  <!-- Circuit Zandvoort Circuit -->
  <!-- Track glow effect -->
  <path d="M31.99,55.96 L52.16,26.20 L59.83,15.27 L61.57,14.07 L63.92,13.39 L66.48,13.19 L68.86,13.49 L71.09,14.42 L72.65,15.59 L73.48,17.05 L73.54,18.67 L71.32,21.82 L64.92,31.33 L62.86,35.75 L62.03,40.36 L62.47,44.69 L61.80,46.45 L60.23,47.63 L57.09,49.19 L53.71,50.01 L44.37,52.23 L41.97,53.34 L41.31,54.97 L41.23,56.44 L42.19,57.94 L44.00,59.01 L46.27,59.57 L49.74,59.52 L66.84,56.19 L74.79,55.29 L81.64,55.15 L87.70,55.42 L93.43,56.02 L97.52,56.78 L104.20,57.65 L110.38,57.98 L114.75,57.42 L120.02,56.58 L126.35,54.63 L133.80,51.67 L138.84,50.21 L143.32,49.42 L149.25,49.01 L153.91,49.08 L173.36,49.81 L177.84,50.43 L182.01,51.70 L184.96,53.25 L186.86,54.90 L188.71,56.78 L189.69,58.96 L190.00,61.26 L189.65,63.51 L188.57,65.80 L186.23,68.28 L177.29,75.73 L174.00,79.03 L166.53,88.87 L162.95,89.64 L158.52,89.96 L154.29,89.83 L149.30,89.31 L144.12,88.23 L138.57,86.61 L133.08,84.22 L129.69,81.92 L129.07,80.52 L129.61,79.03 L131.72,77.17 L134.74,75.99 L139.18,75.00 L146.76,74.27 L154.06,73.15 L160.72,71.59 L164.41,70.01 L165.80,68.11 L165.99,66.03 L164.80,63.97 L161.72,62.10 L158.95,61.51 L144.58,60.44 L130.11,60.47 L114.74,61.60 L101.74,63.60 L93.70,65.14 L84.82,67.15 L76.34,69.35 L69.42,71.85 L66.88,72.52 L65.07,72.31 L63.38,70.87 L61.57,68.79 L59.08,67.84 L55.88,67.77 L52.77,68.66 L51.11,70.03 L50.34,71.50 L51.11,74.49 L58.07,99.31 L58.22,100.97 L57.45,102.66 L56.22,104.10 L55.03,105.02 L52.07,106.24 L48.92,106.68 L35.54,106.81 L32.82,106.73 L28.84,106.35 L24.73,105.53 L21.35,104.59 L16.85,102.43 L13.92,100.04 L11.92,97.99 L10.47,95.22 L10.00,92.80 L10.41,88.84 L11.65,86.02 L30.94,57.45 L31.99,55.96 Z" stroke="rgba(0, 212, 255, 0.3)" stroke-width="8" stroke-linecap="round" stroke-linejoin="round" fill="none"/>
  <!-- Main track line -->
  <path d="M31.99,55.96 L52.16,26.20 L59.83,15.27 L61.57,14.07 L63.92,13.39 L66.48,13.19 L68.86,13.49 L71.09,14.42 L72.65,15.59 L73.48,17.05 L73.54,18.67 L71.32,21.82 L64.92,31.33 L62.86,35.75 L62.03,40.36 L62.47,44.69 L61.80,46.45 L60.23,47.63 L57.09,49.19 L53.71,50.01 L44.37,52.23 L41.97,53.34 L41.31,54.97 L41.23,56.44 L42.19,57.94 L44.00,59.01 L46.27,59.57 L49.74,59.52 L66.84,56.19 L74.79,55.29 L81.64,55.15 L87.70,55.42 L93.43,56.02 L97.52,56.78 L104.20,57.65 L110.38,57.98 L114.75,57.42 L120.02,56.58 L126.35,54.63 L133.80,51.67 L138.84,50.21 L143.32,49.42 L149.25,49.01 L153.91,49.08 L173.36,49.81 L177.84,50.43 L182.01,51.70 L184.96,53.25 L186.86,54.90 L188.71,56.78 L189.69,58.96 L190.00,61.26 L189.65,63.51 L188.57,65.80 L186.23,68.28 L177.29,75.73 L174.00,79.03 L166.53,88.87 L162.95,89.64 L158.52,89.96 L154.29,89.83 L149.30,89.31 L144.12,88.23 L138.57,86.61 L133.08,84.22 L129.69,81.92 L129.07,80.52 L129.61,79.03 L131.72,77.17 L134.74,75.99 L139.18,75.00 L146.76,74.27 L154.06,73.15 L160.72,71.59 L164.41,70.01 L165.80,68.11 L165.99,66.03 L164.80,63.97 L161.72,62.10 L158.95,61.51 L144.58,60.44 L130.11,60.47 L114.74,61.60 L101.74,63.60 L93.70,65.14 L84.82,67.15 L76.34,69.35 L69.42,71.85 L66.88,72.52 L65.07,72.31 L63.38,70.87 L61.57,68.79 L59.08,67.84 L55.88,67.77 L52.77,68.66 L51.11,70.03 L50.34,71.50 L51.11,74.49 L58.07,99.31 L58.22,100.97 L57.45,102.66 L56.22,104.10 L55.03,105.02 L52.07,106.24 L48.92,106.68 L35.54,106.81 L32.82,106.73 L28.84,106.35 L24.73,105.53 L21.35,104.59 L16.85,102.43 L13.92,100.04 L11.92,97.99 L10.47,95.22 L10.00,92.80 L10.41,88.84 L11.65,86.02 L30.94,57.45 L31.99,55.96 Z" stroke="#00d4ff" stroke-width="2" stroke-linecap="round" stroke-linejoin="round" fill="none"/>
</svg>